<?xml version="1.0" encoding="utf-8"?>
<!-- Generator: Adobe Illustrator 21.0.0, SVG Export Plug-In . SVG Version: 6.00 Build 0)  -->
<svg version="1.1" id="Capa_1" xmlns="http://www.w3.org/2000/svg" xmlns:xlink="http://www.w3.org/1999/xlink" x="0px" y="0px"
	 viewBox="0 0 100 100" style="enable-background:new 0 0 100 100;" xml:space="preserve">
<path d="M98.5,92.4L74.6,68.6c6-7.5,9.3-16.8,9.3-26.4c0-23.1-18.8-41.8-41.8-41.8c-23,0-41.7,18.7-41.7,41.7
	C0.3,65.3,19.1,84,42.2,84c9.7,0,18.8-3.3,26.4-9.4l23.8,23.8c0.8,0.8,1.9,1.3,3,1.3c1,0,2.1-0.4,2.8-1.2c0.8-0.7,1.3-1.6,1.4-2.8
	l0-0.2C99.7,94.3,99.2,93.2,98.5,92.4z M75.5,42.3c0,18.3-15,33.3-33.4,33.3c-18.3,0-33.3-15-33.3-33.4c0-18.3,15-33.3,33.4-33.3
	C60.5,8.9,75.5,23.9,75.5,42.3z"/>
</svg>
