<?xml version="1.0" encoding="utf-8"?>
<!-- Generator: Adobe Illustrator 21.0.0, SVG Export Plug-In . SVG Version: 6.00 Build 0)  -->
<svg version="1.1" id="Capa_1" xmlns="http://www.w3.org/2000/svg" xmlns:xlink="http://www.w3.org/1999/xlink" x="0px" y="0px"
	 viewBox="0 0 100 100" style="enable-background:new 0 0 100 100;" xml:space="preserve">
<g>
	<path d="M98.3000031,92.4000015L74.5,68.5C80.5999985,61,84,51.7000008,84,42.2000008C84,19.1000004,65.1999969,0.3,42.2000008,0.3
		S0.5,19.0999985,0.5,42.0999985C0.4,65.1999969,19.2000008,84,42.2999992,84
		c9.6000023,0,18.8999977-3.3000031,26.2999992-9.4000015l23.7000046,23.7000046
		c0.8000031,0.8000031,1.9000015,1.3000031,3,1.3000031c1,0,2.0999985-0.4000015,2.8000031-1.1999969
		c0.8000031-0.6999969,1.3000031-1.5999985,1.4000015-2.8000031C99.6999969,94.4000015,99.1999969,93.1999969,98.3000031,92.4000015
		z M75.5,42.2999992c0,18.3999977-15,33.2999992-33.4000015,33.2999992C23.7999992,75.5,8.8999996,60.5,8.8999996,42.2000008
		c0-18.3999996,15-33.2999992,33.4000015-33.2999992C60.5999985,8.8999996,75.5,23.7999992,75.5,42.2999992z"/>
	<path d="M59.4000015,37.9000015h-13v-13c0-2.2999992-1.9000015-4.2999992-4.2999992-4.2999992
		c-2.2999992,0-4.2999992,1.8999996-4.2999992,4.2999992v13H25c-2.2999992,0-4.2999992,1.9000015-4.2999992,4.2999992
		S22.6000004,46.5,25,46.5h13v13c0,2.2999992,1.9000015,4.2999992,4.2999992,4.2999992
		c2.2999992,0,4.2999992-1.9000015,4.2999992-4.2999992V46.2999992h13c2.2999992,0,4.2999992-1.9000015,4.2999992-4.2999992
		v-0.0999985C63.5999985,39.7000008,61.5999985,37.9000015,59.4000015,37.9000015z"/>
</g>
</svg>
