<?xml version="1.0" encoding="utf-8"?>
<!-- Generator: Adobe Illustrator 21.0.0, SVG Export Plug-In . SVG Version: 6.00 Build 0)  -->
<svg version="1.1" id="Capa_1" xmlns="http://www.w3.org/2000/svg" xmlns:xlink="http://www.w3.org/1999/xlink" x="0px" y="0px"
	 viewBox="0 0 100 100" style="enable-background:new 0 0 100 100;" xml:space="preserve">
<g>
	<path d="M98.5,92.4L74.6,68.5c6.1-7.6,9.5-16.9,9.5-26.4C84.1,19,65.3,0.2,42.3,0.2C19.1,0.2,0.3,19,0.3,42.1
		C0.3,65.2,19.1,84,42.3,84c9.7,0,19.1-3.3,26.5-9.5l23.8,23.8c0.8,0.8,1.9,1.3,3,1.3c1.1,0,2.1-0.5,2.9-1.2c0.8-0.7,1.3-1.8,1.3-3
		C99.7,94.3,99.3,93.2,98.5,92.4z M42.3,8.6c18.4,0,33.4,15,33.4,33.4c0,18.5-15,33.5-33.4,33.5c-18.5,0-33.5-15-33.5-33.5
		C8.7,23.6,23.8,8.6,42.3,8.6z"/>
	<path d="M24.9,46.2h34.5c2.3,0,4.3-1.9,4.3-4.3c0-2.3-2-4.3-4.3-4.3H24.9c-2.3,0-4.3,1.9-4.3,4.3C20.8,44.5,22.6,46.2,24.9,46.2z"
		/>
</g>
</svg>
