<?xml version="1.0" encoding="utf-8"?>
<!-- Generator: Adobe Illustrator 21.0.0, SVG Export Plug-In . SVG Version: 6.00 Build 0)  -->
<svg version="1.1" id="Capa_1" xmlns="http://www.w3.org/2000/svg" xmlns:xlink="http://www.w3.org/1999/xlink" x="0px" y="0px"
	 viewBox="0 0 100 100" style="enable-background:new 0 0 100 100;" xml:space="preserve">
<path d="M98.7,25L98.7,25c-1.6-1.6-4.2-1.7-6.1,0L50,66.1L7.5,25c-1.6-1.6-4.2-1.7-6-0.1C0.6,25.6,0,26.8,0,28c0,1.1,0.4,2.1,1.1,3
	l45.7,44.1c0.8,0.8,1.8,1.2,3,1.2c0.9,0,1.7-0.3,2.6-0.8l0.1-0.1l45.8-44.3c0.9-0.8,1.4-1.9,1.5-3C100,27,99.5,25.8,98.7,25z"/>
</svg>
