<?xml version="1.0" encoding="utf-8"?>
<!-- Generator: Adobe Illustrator 21.0.0, SVG Export Plug-In . SVG Version: 6.00 Build 0)  -->
<svg version="1.1" id="Capa_1" xmlns="http://www.w3.org/2000/svg" xmlns:xlink="http://www.w3.org/1999/xlink" x="0px" y="0px"
	 viewBox="0 0 100 100" style="enable-background:new 0 0 100 100;" xml:space="preserve">
<path d="M98.7,75.1L98.7,75.1c-1.6,1.6-4.2,1.7-6.1,0L50,34L7.5,75.1c-1.6,1.6-4.2,1.7-6,0.1C0.6,74.5,0,73.3,0,72.1
	c0-1.1,0.4-2.1,1.1-3L46.8,25c0.8-0.8,1.8-1.2,3-1.2c0.9,0,1.7,0.3,2.6,0.8l0.1,0.1L98.4,69c0.9,0.8,1.4,1.9,1.5,3
	C100,73.1,99.5,74.3,98.7,75.1z"/>
</svg>
