<?xml version="1.0" encoding="utf-8"?>
<!-- Generator: Adobe Illustrator 21.0.0, SVG Export Plug-In . SVG Version: 6.00 Build 0)  -->
<svg version="1.1" id="Capa_1" xmlns="http://www.w3.org/2000/svg" xmlns:xlink="http://www.w3.org/1999/xlink" x="0px" y="0px"
	 viewBox="0 0 100 100" style="enable-background:new 0 0 100 100;" xml:space="preserve">
<path d="M0.4,48.8c0.2-0.6,0.6-1.2,1-1.5l31.4-32.9c0.7-0.8,1.7-1.3,2.9-1.5l0.2,0c1.2,0,2.2,0.4,3,1.1c0.8,0.7,1.3,1.7,1.4,2.8
	c0.1,1.2-0.3,2.4-1.1,3.4L14.6,45.7h80.9c2.4,0,4.3,1.9,4.3,4.3c0,2.4-1.9,4.2-4.3,4.2H14.6L39,80.1c0.8,0.9,1.1,2,1,3
	c0,1-0.5,2-1.3,2.9c-0.7,0.9-1.9,1.4-3,1.4c-1,0-2-0.4-2.9-1.1L1.3,53.1l-0.2-0.2c-0.7-1.2-0.9-1.7-0.9-2
	C0.1,50.3,0.1,49.6,0.4,48.8z"/>
</svg>
