<?xml version="1.0" encoding="utf-8"?>
<!-- Generator: Adobe Illustrator 21.0.0, SVG Export Plug-In . SVG Version: 6.00 Build 0)  -->
<svg version="1.1" id="Capa_1" xmlns="http://www.w3.org/2000/svg" xmlns:xlink="http://www.w3.org/1999/xlink" x="0px" y="0px"
	 viewBox="0 0 100 100" style="enable-background:new 0 0 100 100;" xml:space="preserve">
<path d="M99.6,48.8c-0.2-0.6-0.6-1.2-1-1.5L67.2,14.3c-0.7-0.8-1.7-1.3-2.9-1.5l-0.2,0c-1.2,0-2.2,0.4-3,1.1
	c-0.8,0.7-1.3,1.7-1.4,2.8c-0.1,1.2,0.3,2.4,1.1,3.4l24.4,25.7H4.4c-2.4,0-4.3,1.9-4.3,4.3c0,2.4,1.9,4.2,4.3,4.2h80.9L61,80.1
	c-0.8,0.9-1.1,2-1,3c0,1,0.5,2,1.3,2.9c0.7,0.9,1.9,1.4,3,1.4c1,0,2-0.4,2.9-1.1l31.5-33.1l0.2-0.2c0.7-1.2,0.9-1.7,0.9-2
	C99.9,50.3,99.9,49.6,99.6,48.8z"/>
</svg>
