<?xml version="1.0" encoding="utf-8"?>
<!-- Generator: Adobe Illustrator 21.0.0, SVG Export Plug-In . SVG Version: 6.00 Build 0)  -->
<svg version="1.1" id="Capa_1" xmlns="http://www.w3.org/2000/svg" xmlns:xlink="http://www.w3.org/1999/xlink" x="0px" y="0px"
	 viewBox="0 0 100 100" style="enable-background:new 0 0 100 100;" xml:space="preserve">
<path d="M99.8,38.1c-0.2-0.6-0.6-1.4-1-1.8c-8-9-34.1-32.5-35.2-33.5c-1.2-1-2.9-1.3-4.1-0.6c-1.4,0.7-2.2,2-2.2,3.4v15.7
	C25.1,24.7,0,52.4,0,85v9.6c0,1.9,1.1,3.3,2.9,3.7l0.9,0c1.4,0,2.7-0.8,3.4-2.1l1.8-3.9C18,73.2,36.4,59.9,57.3,57.5v14.9
	c0,1.4,0.9,2.8,2.2,3.5c1.4,0.6,2.9,0.4,4.1-0.7l35-33.4c0.7-0.7,1.2-1.9,1.2-3L99.8,38.1z M64.1,50.6c-0.9-0.9-2.2-1.2-3-1
	C39.3,50.7,18.9,62.1,6.6,79.9c3-28.2,26.2-50.5,54.9-52c2.2,0,3.8-1.7,3.8-3.9V13.4l26.4,25.3L65.3,63.9V53.5
	C65.3,52.5,64.8,51.4,64.1,50.6z"/>
</svg>
