<?xml version="1.0" encoding="utf-8"?>
<!-- Generator: Adobe Illustrator 21.0.0, SVG Export Plug-In . SVG Version: 6.00 Build 0)  -->
<svg version="1.1" id="Capa_1" xmlns="http://www.w3.org/2000/svg" xmlns:xlink="http://www.w3.org/1999/xlink" x="0px" y="0px"
	 viewBox="0 0 100 100" style="enable-background:new 0 0 100 100;" xml:space="preserve">
<g>
	<path d="M99.5,27.8c-0.2-0.4-0.9-1.3-1.1-1.5L81.3,9.3c-0.7-0.7-1.8-1.2-2.9-1.2c-1.1,0-2.2,0.4-2.9,1.2c-0.7,0.7-1.2,1.8-1.2,2.9
		c0,1.1,0.4,2.2,1.2,2.9l10.3,10.3H21.7c-2.3,0-4.2,1.9-4.2,4.2c0,2.4,1.7,4.2,4.2,4.2h64.1L75.5,43.9c-0.8,0.8-1.2,1.8-1.2,2.9
		c0,1.1,0.4,2.1,1.2,2.9c0.8,0.8,1.8,1.2,2.8,1.2c1,0,2.1-0.5,2.8-1.2l17.3-17.3c0.2-0.2,0.5-0.5,0.9-1.2l0.1-0.1
		C99.9,30.2,100,28.9,99.5,27.8z"/>
	<path d="M0.7,72.6c0.1,0.2,0.4,0.6,0.7,0.9l17.2,17.2c0.8,0.8,1.8,1.2,2.8,1.2c0.9,0,2.1-0.4,2.9-1.3c0.7-0.7,1.1-1.8,1.1-2.9
		c0-1.1-0.4-2.2-1.2-2.9L14.1,74.7h64.1c2.2,0,4.1-1.8,4.1-3.8c0.2-1.3-0.4-2.3-0.9-2.9l-0.2-0.2c-0.8-0.8-1.8-1.2-3-1.2H14.2
		l10.3-10.3c0.7-0.7,1.2-1.8,1.2-2.9c0-1.1-0.4-2.2-1.2-2.9c-0.7-0.7-1.8-1.2-2.9-1.2c-1.1,0-2.2,0.4-2.9,1.2L1.3,67.6
		c-0.2,0.2-0.6,0.6-0.9,1.3c-0.5,1.1-0.5,2.2,0,3.3"/>
</g>
</svg>
