<?xml version="1.0" encoding="utf-8"?>
<!-- Generator: Adobe Illustrator 21.0.0, SVG Export Plug-In . SVG Version: 6.00 Build 0)  -->
<svg version="1.1" id="Capa_1" xmlns="http://www.w3.org/2000/svg" xmlns:xlink="http://www.w3.org/1999/xlink" x="0px" y="0px"
	 viewBox="0 0 100 100" style="enable-background:new 0 0 100 100;" xml:space="preserve">
<g>
	<path d="M68.4,32.9c-5.8,0-10.5,4.7-10.5,10.5v2.6c-0.3-0.4-0.6-0.7-1-1c-2-2-4.7-3.1-7.6-3.1c-0.8,0-1.7,0.1-2.5,0.3
		c0.6-0.8,1.5-1.4,2.5-1.4c0.7,0,1.4,0.2,1.9,0.7c0.8,0.6,1.8,0.9,2.9,0.8c1-0.1,1.9-0.6,2.6-1.4c0.6-0.8,0.9-1.8,0.8-2.9
		c-0.1-1-0.6-1.9-1.4-2.6c-1.9-1.5-4.2-2.3-6.7-2.3c-6,0-10.9,4.9-10.9,10.9v2.6c-0.5-0.6-1-1.2-1.6-1.7c0.5-1,0.7-2.2,0.7-3.5
		c0-4.6-3.7-8.3-8.3-8.3c-2,0-4,0.8-5.5,2.1c-0.7,0.6-1.2,1.5-1.3,2.6l0,0.1c0,1.1,0.3,1.9,0.9,2.7c0.6,0.7,1.5,1.2,2.6,1.3
		c1,0.1,1.9-0.2,2.9-1c0.1-0.1,0.2-0.1,0.3-0.1c0.3,0,0.6,0.2,0.6,0.6c0,0.3-0.2,0.6-0.6,0.6c-2.2,0-3.9,1.8-3.9,3.9
		c0,2.2,1.8,3.9,3.9,3.9c1.9,0,3.5,1.6,3.5,3.5c0,1.9-1.6,3.5-3.5,3.5c-1.1,0-2.1-0.5-2.8-1.4c-0.6-0.8-1.5-1.4-2.5-1.5
		c-1-0.2-2,0.1-2.9,0.7c-0.8,0.6-1.4,1.5-1.5,2.5c-0.2,1,0.1,2,0.7,2.8c2.2,2.9,5.3,4.5,9,4.5c4.4,0,8.2-2.5,10.1-6.3
		c1.7,3.7,5.5,6.3,9.8,6.3c4.2,0,8-2.5,9.7-6.1c1.8,3.4,5.5,5.7,9.5,5.7c5.8,0,10.5-4.7,10.5-10.5V43.4c0-2.8-1-5.3-3-7.4
		C73.9,34,71.2,32.9,68.4,32.9z M71.1,53.6c0,1.5-1.2,2.7-2.7,2.7s-2.7-1.2-2.7-2.7V43.4c0-1.5,1.2-2.7,2.7-2.7s2.7,1.2,2.7,2.7
		V53.6z M46.3,52.5c0-1.7,1.4-3,3-3c1.6,0,3,1.4,3,3l0,0.8c0,0.8-0.2,1.5-0.8,2c-0.6,0.6-1.4,0.9-2.3,0.9c-1.7,0-3-1.4-3-3V52.5z"/>
	<path d="M98.4,48.9L98.4,48.9c-0.2-0.2-0.6-0.5-1.1-0.8c0.3-0.2,0.6-0.5,0.9-0.8c0.6-0.8,0.9-1.8,0.8-2.9c-0.1-0.6-0.1-1.1-0.2-1.6
		c-0.1-0.5-0.1-1-0.2-1.5c-0.1-0.9-0.6-1.7-1.5-2.5l-0.1-0.1c-0.4-0.2-0.8-0.4-1.2-0.5c0.3-0.3,0.6-0.6,0.8-1c0.5-0.9,0.6-2,0.3-2.9
		c-0.3-1-0.7-2-1.1-3c-0.4-0.9-1.2-1.7-2.1-2.1c-0.3-0.1-0.7-0.2-1.1-0.3c0.7-1.2,0.8-2.7,0.1-3.9c-0.5-0.9-1.1-1.8-1.7-2.7
		c-0.6-0.9-1.5-1.5-2.5-1.6c-0.6-0.1-1.1-0.1-1.7,0c0.8-1.2,0.9-2.7,0.2-3.9l-4.5-8.9C82.1,7,81.4,6.4,80.5,6
		c-1-0.4-2.1-0.3-3.1,0.2c-0.6,0.4-1.2,0.9-1.6,1.5C68.2,3,59.3,0.5,50,0.5C36.7,0.5,24.3,5.7,15.1,15C5.7,24.5,0.5,36.9,0.5,50
		c0,13.2,5.2,25.6,14.6,34.9c0.8,0.8,1.7,1.2,2.7,1.2c0.7,0,1.4-0.2,2-0.6c-0.3,0.7-0.4,1.4-0.3,2.1c0.2,1.1,0.8,2,1.6,2.6
		c0.9,0.6,1.7,1.2,2.5,1.7l0.1,0.1c0.6,0.4,1.3,0.5,2.1,0.5c0.8,0,1.5-0.2,2.1-0.6c0,0.4,0.1,0.8,0.3,1.2c0.4,1,1.2,1.7,2.1,2.1
		l3,1.2c0.3,0.1,0.8,0.2,1.3,0.2c0.9,0,1.8-0.4,2.5-0.9c0.1,0.3,0.2,0.7,0.5,1c0.5,0.8,1.4,1.4,2.5,1.7c0.9,0.2,2.1,0.4,3.3,0.5h0.4
		c1.2,0,2.3-0.6,3-1.5c0.6,1.3,1.9,2.1,3.5,2.1c1.1,0,2.1,0,3.2-0.1c1.6-0.1,2.9-1.1,3.3-2.6c0.7,0.9,1.8,1.5,3,1.5
		c0.2,0,0.5,0,0.9-0.1c0.9-0.2,1.9-0.4,3-0.8c1-0.3,1.8-0.9,2.4-1.8c0.2-0.3,0.3-0.7,0.4-1c0.7,0.5,1.5,0.9,2.5,0.9
		c0.5,0,1.1-0.1,1.5-0.4c0.8-0.3,1.5-0.7,2.2-1l0.8-0.4c0.9-0.5,1.5-1.3,1.8-2.3c0.1-0.3,0.1-0.7,0.2-1c0.5,0.2,1,0.3,1.6,0.3
		c0.8,0,1.6-0.3,2.3-0.8c0.9-0.6,1.8-1.3,2.5-2c0.9-0.7,1.3-1.7,1.3-2.7c0-0.4-0.1-0.8-0.2-1.2c0.3,0.1,0.7,0.1,1,0.1
		c1.1,0,2.2-0.5,2.9-1.3c0.7-0.8,1.4-1.6,2-2.5c0.6-0.8,0.9-1.8,0.8-2.9c-0.1-0.4-0.2-0.7-0.3-1c0.1,0,0.2,0,0.2,0
		c1.3,0,2.5-0.7,3.4-1.9c0.4-0.6,0.7-1.2,1-1.8c0.2-0.3,0.3-0.7,0.5-1c0.5-0.9,0.6-2,0.2-3.1l0-0.1c-0.2-0.3-0.4-0.6-0.6-0.9
		c1.5-0.2,2.6-1.2,3.1-2.7c0.3-1,0.6-2,0.9-3.1c0.3-1.1,0.1-2.1-0.4-2.9l-0.1-0.1c-0.2-0.3-0.5-0.5-0.7-0.7c1.3-0.5,2.2-1.8,2.3-3.2
		l0-0.2c0.1-1,0.2-1.9,0.2-2.9C99.5,50.7,99.2,49.7,98.4,48.9z M79.7,81c-1-0.1-2.1,0.2-2.9,0.9c-0.3,0.3-0.7,0.6-1,0.9
		c-0.4,0.3-0.8,0.6-1.1,0.9c-0.8,0.6-1.4,1.5-1.5,2.5c0,0.2,0,0.4,0,0.6c-0.2-0.1-0.4-0.2-0.7-0.2l0,0c-1.1-0.3-2.1-0.2-2.9,0.3
		l-0.6,0.3c-0.6,0.3-1.2,0.6-1.8,0.8c-1,0.4-1.7,1.3-2,2.2c-0.1,0.2-0.1,0.4-0.2,0.7c-0.2-0.1-0.3-0.3-0.5-0.4l-0.1,0
		c-0.9-0.5-2-0.7-2.9-0.4c-0.8,0.3-1.7,0.5-2.6,0.7c-1,0.3-1.8,0.8-2.4,1.7l-0.1,0.1c-0.1,0.2-0.2,0.5-0.3,0.7
		c-0.2-0.2-0.3-0.4-0.5-0.6c-0.8-0.7-1.9-1-2.8-0.9c-0.8,0.1-1.8,0.1-2.6,0.1c-1,0-2,0.4-2.8,1.2c-0.1,0.1-0.2,0.3-0.3,0.4
		c-0.5-1.1-1.6-1.9-2.9-2.1l-0.1,0c-0.7-0.1-1.5-0.2-2.6-0.5c-1-0.2-2.1-0.1-2.9,0.5c-0.2,0.1-0.4,0.2-0.5,0.4
		c0-0.2-0.1-0.3-0.1-0.5L38,91c-0.6-0.8-1.3-1.4-2.2-1.8l-0.1,0c-0.7-0.2-1.5-0.6-2.4-1c-1.2-0.6-2.6-0.4-3.6,0.2
		c-0.1-1-0.6-2-1.4-2.7l-0.5-0.4h-0.1c-0.3-0.2-0.6-0.4-0.9-0.6c-0.4-0.2-0.7-0.5-1.1-0.7c-0.7-0.6-1.7-0.8-2.8-0.7
		c-0.5,0.1-1,0.2-1.4,0.5c0.2-0.5,0.3-1,0.3-1.5l0-0.1c-0.1-1.1-0.6-1.9-1.3-2.6C12.6,71.5,8.3,61,8.3,50c0-11.1,4.3-21.6,12.2-29.5
		C28.4,12.6,38.9,8.3,50,8.3c7.4,0,14.6,1.9,20.9,5.6c-0.3,0.4-0.5,0.8-0.5,1.3c-0.2,1-0.1,2.1,0.4,2.8c0.5,0.9,1.4,1.6,2.4,1.8
		l9.5,2.5c0.4,0.1,0.8,0.1,1.1,0.1c0.3,0,0.6,0,0.8-0.1c-0.3,0.4-0.5,0.8-0.6,1.2c-0.2,1,0,2.1,0.6,2.9l1.4,2.3
		c0.6,1.1,1.7,1.8,3,1.9c-0.1,0.2-0.2,0.3-0.3,0.5c-0.4,0.9-0.4,2,0,3c0.3,0.6,0.5,1.2,0.7,1.8l0.2,0.6c0.4,1.2,1.4,2.1,2.6,2.5
		c-0.2,0.2-0.3,0.4-0.5,0.6c-0.5,0.8-0.8,1.8-0.6,2.9c0.2,0.7,0.3,1.6,0.3,2.4l0,0.3c0.2,1.3,0.9,2.4,2,2.9c-1,0.7-1.7,1.8-1.8,3.1
		c0,0.8-0.1,1.8-0.2,2.6c-0.1,1,0.2,2.1,0.9,2.9c0.1,0.2,0.3,0.3,0.4,0.4c-0.2,0.1-0.3,0.1-0.5,0.2c-0.8,0.5-1.4,1.3-1.7,2.4
		c-0.2,0.8-0.5,1.6-0.7,2.5l0,0.1c-0.3,1.1-0.2,2.1,0.3,3c0.1,0.2,0.2,0.4,0.4,0.5c-1.2,0.2-2.4,0.9-2.9,2.1
		c-0.2,0.4-0.4,0.8-0.6,1.2c-0.2,0.4-0.4,0.8-0.6,1.2c-0.5,0.9-0.7,2-0.4,2.9c0.1,0.3,0.2,0.5,0.3,0.7c-0.2,0-0.5,0-0.7,0
		c-1,0.1-1.9,0.6-2.6,1.4c-0.3,0.3-0.6,0.7-0.9,1.1c-0.3,0.4-0.6,0.7-0.9,1.1c-0.7,0.8-1,1.8-0.9,2.7c0,0.2,0,0.4,0.1,0.6
		C80.1,81,79.9,81,79.7,81z"/>
</g>
</svg>
