<?xml version="1.0" encoding="utf-8"?>
<!-- Generator: Adobe Illustrator 21.0.0, SVG Export Plug-In . SVG Version: 6.00 Build 0)  -->
<svg version="1.1" id="Capa_1" xmlns="http://www.w3.org/2000/svg" xmlns:xlink="http://www.w3.org/1999/xlink" x="0px" y="0px"
	 viewBox="0 0 100 100" style="enable-background:new 0 0 100 100;" xml:space="preserve">
<g>
	<path d="M5.6,69.1c0.3,0.1,0.5,0.1,0.8,0.1c0.7,0,1.4-0.3,1.8-0.4l0.2-0.1l0.1-0.1c1.8-0.9,2.4-3,1.6-4.9
		c-6.5-18.6,1.3-39.5,18.5-49.7c9.5-5.6,20.3-7.2,31.1-4.6c8.2,2,15.9,6.6,21,12.5c-2.5,0-6.4,0-8.1,0.1c-1,0-3.7,0-4.3,2.7
		c-0.3,1.1-0.1,2.3,0.5,3.2c0.6,0.8,1.4,1.2,2.3,1.3c4.8,0.3,16.9,0.4,17.4,0.4c0.6,0,0.7,0,1.4-0.1c1-0.2,1.9-0.9,2.4-1.5l0.1-0.1
		c0.3-0.5,0.7-1.3,0.7-1.3l0.5-2.2c0.9-4,2.4-10.1,2.8-13.5c0.4-2.9-1.2-3.9-2.4-4.3c-1.4-0.5-3.4-0.3-4.6,2.7
		c-0.6,1.6-1.4,5.4-1.9,7.9C81,9.7,71.7,4,61.7,1.6l-0.4-0.1C48.7-1.6,35.5,0.5,24,7.4C0.9,21.5-4.1,48,2.9,67
		C3.3,68,4.4,68.9,5.6,69.1z"/>
	<path d="M96.9,33.2c-0.4-1-1.5-1.9-2.7-2.1c-1-0.3-2,0.1-2.6,0.3l-0.2,0.1l-0.1,0.1c-1.8,0.9-2.4,3-1.6,4.9
		c6.5,18.6-1.3,39.5-18.5,49.7c-9.5,5.6-20.3,7.2-31.1,4.6c-8.2-2-15.9-6.6-21-12.5c2.5,0,6.4,0,8.1-0.1c1,0,3.7,0,4.3-2.7
		c0.3-1.1,0.1-2.3-0.5-3.2c-0.6-0.8-1.4-1.2-2.3-1.3c-4.8-0.3-16.9-0.4-17.4-0.4c-0.6,0-0.7,0-1.4,0.1c-1,0.2-1.9,0.9-2.4,1.5
		l-0.1,0.1c-0.3,0.5-0.8,1.4-0.8,1.4l-0.1,0.3c-0.9,3.7-2.7,11.5-3.3,15.4c-0.4,2.9,1.2,3.9,2.5,4.3c1.4,0.4,3.4,0.2,4.6-2.9
		c0.6-1.6,1.4-5.4,1.9-7.9c6.5,7.5,15.8,13.2,25.9,15.7l0.4,0.1c3.8,0.9,7.6,1.4,11.4,1.4c9,0,17.9-2.5,25.9-7.3
		C98.9,78.8,103.9,52.2,96.9,33.2z"/>
</g>
</svg>
