<?xml version="1.0" encoding="utf-8"?>
<!-- Generator: Adobe Illustrator 21.0.0, SVG Export Plug-In . SVG Version: 6.00 Build 0)  -->
<svg version="1.1" id="Capa_1" xmlns="http://www.w3.org/2000/svg" xmlns:xlink="http://www.w3.org/1999/xlink" x="0px" y="0px"
	 viewBox="0 0 100 100" style="enable-background:new 0 0 100 100;" xml:space="preserve">
<g>
	<path d="M50,0.3C22.6,0.3,0.3,22.6,0.3,50S22.6,99.7,50,99.7S99.7,77.4,99.7,50S77.4,0.3,50,0.3z M50,91.6C27,91.6,8.4,73,8.4,50
		C8.4,27,27,8.4,50,8.4C73,8.4,91.6,27,91.6,50C91.6,73,73,91.6,50,91.6z"/>
	<path d="M75.5,31.8c-1.1-0.1-2.3,0.3-3.1,1.1L42.9,61.5L27.6,45.8c-0.8-0.8-1.9-1.2-3.1-1.2c-1.2,0-2.3,0.5-2.9,1.5
		c-0.7,0.9-1.1,2.1-1,3.2c0.1,0.9,0.5,1.8,1.2,2.3l18.1,18.7c0.8,0.8,1.8,1.2,2.9,1.2c1,0,2-0.4,2.8-1.2l32.3-31.5
		c0.8-0.8,1.2-1.9,1.2-3.1c0-1-0.4-2-1.1-2.6C77.4,32.3,76.5,31.9,75.5,31.8z"/>
</g>
</svg>
