<?xml version="1.0" encoding="utf-8"?>
<!-- Generator: Adobe Illustrator 21.0.0, SVG Export Plug-In . SVG Version: 6.00 Build 0)  -->
<svg version="1.1" id="Capa_1" xmlns="http://www.w3.org/2000/svg" xmlns:xlink="http://www.w3.org/1999/xlink" x="0px" y="0px"
	 viewBox="0 0 100 100" style="enable-background:new 0 0 100 100;" xml:space="preserve">
<path d="M99.7,31.9C98.6,17.2,86.1,5.4,71.4,5C63.6,4.7,55.7,7.8,50,13.3C44.2,7.7,36.5,4.7,28.6,5C13.9,5.4,1.4,17.2,0.3,31.9
	c-0.1,1.2-0.1,2.6-0.1,3.8c0.2,5.3,2.5,10.6,6.3,14.9l38.2,42.3c1.3,1.5,3.3,2.3,5.3,2.3c1.9,0,3.9-0.8,5.4-2.3l38.1-42.3
	c3.8-4.2,6-9.4,6.3-14.9C99.8,34.4,99.8,33.1,99.7,31.9z M91.5,35.2c-0.2,3.6-1.7,7-4.2,9.7L50,86.4L12.6,44.9
	c-2.5-2.8-4-6.2-4.2-9.6c0-1,0-1.9,0.1-2.8c0.8-10.5,9.7-19,20.2-19.3h0.7c6.8,0,13.2,3.3,17.1,8.8c0.8,1.1,2,1.7,3.4,1.7
	c1.4,0,2.6-0.6,3.4-1.7c4.1-5.7,10.8-9,17.8-8.8c10.5,0.4,19.5,8.8,20.4,19.3C91.5,33.4,91.5,34.3,91.5,35.2z"/>
</svg>
