<?xml version="1.0" encoding="utf-8"?>
<!-- Generator: Adobe Illustrator 21.0.0, SVG Export Plug-In . SVG Version: 6.00 Build 0)  -->
<svg version="1.1" id="Capa_1" xmlns="http://www.w3.org/2000/svg" xmlns:xlink="http://www.w3.org/1999/xlink" x="0px" y="0px"
	 viewBox="0 0 56 56" style="enable-background:new 0 0 56 56;" xml:space="preserve">
<g>
	<path d="M9.3,37.7c-5,0-9.1,4.1-9.1,9.1c0,5,4.1,9.2,9.1,9.2s9.1-4.1,9.1-9.1C18.3,41.8,14.2,37.7,9.3,37.7z M13.4,46.7
		c-0.1,2.3-1.9,4.1-4.1,4.1c-2.2,0-4.1-1.9-4.1-4.1s1.9-4.1,4.1-4.1C11.5,42.6,13.4,44.5,13.4,46.7z"/>
	<path d="M9.2,37.1c5,0,9.1-4.1,9.1-9.1s-4-9.1-9-9.1c-5.1,0-9.2,4.1-9.2,9.1S4.2,37.1,9.2,37.1z M5.2,28c0-2.2,1.9-4.1,4.1-4.1
		c2.2,0,4.1,1.9,4.1,4.1c-0.1,2.3-1.9,4.1-4.1,4.1C7.1,32.1,5.2,30.2,5.2,28z"/>
	<path d="M9.2,18.3c5,0,9.1-4.1,9.1-9.1c0-5.1-4-9.2-9-9.2c-5.1,0-9.2,4.1-9.2,9.2C0.1,14.3,4.2,18.3,9.2,18.3z M5.2,9.2
		c0-2.2,1.9-4.1,4.1-4.1c2.2,0,4.1,1.9,4.1,4.1s-1.9,4.1-4.1,4.1C7.1,13.3,5.2,11.4,5.2,9.2z"/>
</g>
<g>
	<path d="M54.3,6.9H21.8c-0.8,0-1.5,0.6-1.5,1.5v1.9c0,0.8,0.6,1.5,1.5,1.5h32.5c0.8,0,1.5-0.6,1.5-1.5V8.4
		C55.8,7.6,55.1,6.9,54.3,6.9z"/>
	<path d="M54.3,25.6H21.8c-0.8,0-1.5,0.6-1.5,1.5V29c0,0.8,0.6,1.5,1.5,1.5h32.5c0.8,0,1.5-0.6,1.5-1.5V27
		C55.8,26.2,55.1,25.6,54.3,25.6z"/>
	<path d="M54.3,44.3H21.8c-0.8,0-1.5,0.6-1.5,1.5v1.9c0,0.8,0.6,1.5,1.5,1.5h32.5c0.8,0,1.5-0.6,1.5-1.5v-1.9
		C55.8,45.1,55.2,44.3,54.3,44.3z"/>
</g>
</svg>
