<?xml version="1.0" encoding="utf-8"?>
<!-- Generator: Adobe Illustrator 21.0.0, SVG Export Plug-In . SVG Version: 6.00 Build 0)  -->
<svg version="1.1" id="Capa_1" xmlns="http://www.w3.org/2000/svg" xmlns:xlink="http://www.w3.org/1999/xlink" x="0px" y="0px"
	 viewBox="0 0 56 56" style="enable-background:new 0 0 56 56;" xml:space="preserve">
<g>
	<path d="M9.2,37.7c-5,0-9.1,4.1-9.1,9.1c0,5.1,4.1,9.2,9.1,9.2c5,0,9.1-4.1,9.1-9.1C18.3,41.9,14.2,37.7,9.2,37.7z M13.3,46.7
		c-0.1,2.3-1.9,4.1-4.1,4.1c-2.2,0-4.1-1.9-4.1-4.1c0-2.2,1.9-4.1,4.1-4.1C11.5,42.7,13.3,44.5,13.3,46.7z"/>
	<path d="M28,37.7c-5,0-9.1,4.1-9.1,9.1c0,5,4.2,9.2,9.1,9.2c5,0,9.1-4.1,9.1-9.1C37.1,41.9,32.9,37.7,28,37.7z M28,50.9
		c-2.2,0-4.1-1.9-4.1-4.1c0-2.2,1.9-4.1,4.1-4.1c2.2,0,4.1,1.9,4.1,4.1C32.1,49,30.2,50.9,28,50.9z"/>
	<path d="M46.8,37.7c-5,0-9.1,4.1-9.1,9.1s4.1,9.1,9.1,9.1s9.1-4.1,9.1-9.1S51.8,37.7,46.8,37.7z M50.9,46.8c0,2.2-1.9,4.1-4.1,4.1
		c-2.2,0-4.1-1.9-4.1-4.1c0-2.2,1.9-4.1,4.1-4.1C49,42.7,50.9,44.5,50.9,46.8z"/>
	<path d="M9.1,37.1c5,0,9.1-4.1,9.1-9.1c0-5-4-9.1-9-9.1c-5.1,0-9.2,4.1-9.2,9.1C0.1,33,4.1,37.1,9.1,37.1z M5.1,28
		c0-2.2,1.9-4.1,4.1-4.1c2.2,0,4.1,1.9,4.1,4.1c-0.1,2.3-1.9,4.1-4.1,4.1C7,32.1,5.1,30.2,5.1,28z"/>
	<path d="M28,18.9c-5,0-9.1,4.1-9.1,9.1c0,5,4.1,9.1,9.1,9.1c5,0,9.1-4.1,9.1-9.1C37.1,23,33,18.9,28,18.9z M28,32.1
		c-2.2,0-4.1-1.9-4.1-4.1c0-2.2,1.9-4.1,4.1-4.1c2.2,0,4.1,1.9,4.1,4.1C32.1,30.2,30.2,32.1,28,32.1z"/>
	<path d="M46.8,37.1c5,0,9.2-4.2,9.2-9.1c0-5-4.1-9.1-9.2-9.1c-5,0-9.1,4.1-9.1,9.1C37.7,33,41.8,37.1,46.8,37.1z M42.7,28
		c0-2.2,1.9-4.1,4.1-4.1c2.2,0,4.1,1.9,4.1,4.1c0,2.2-1.9,4.1-4.1,4.1C44.5,32.1,42.7,30.2,42.7,28z"/>
	<path d="M9.1,18.3c5,0,9.1-4.1,9.1-9.1c0-5.1-4-9.2-9-9.2c-5.1,0-9.2,4.1-9.2,9.2C0.1,14.2,4.1,18.3,9.1,18.3z M5.1,9.1
		C5.1,6.9,7,5,9.2,5c2.2,0,4.1,1.9,4.1,4.1c0,2.2-1.9,4.1-4.1,4.1C7,13.2,5.1,11.4,5.1,9.1z"/>
	<path d="M28,0.1c-5,0-9.1,4.1-9.1,9.1c0,5,4.1,9.1,9.1,9.1c5,0,9.1-4.1,9.1-9.1C37.1,4.1,33,0.1,28,0.1z M28,13.2
		c-2.2,0-4.1-1.9-4.1-4.1C23.9,6.9,25.8,5,28,5c2.2,0,4.1,1.9,4.1,4.1C32.1,11.4,30.2,13.2,28,13.2z"/>
	<path d="M46.8,18.3c5,0,9.1-4.1,9.1-9.1c0-5.1-4.1-9.2-9.1-9.2s-9.1,4.1-9.1,9.1C37.7,14.1,41.8,18.3,46.8,18.3z M42.7,9.2
		c0-2.2,1.9-4.1,4.1-4.1c2.2,0,4.1,1.9,4.1,4.1c0,2.2-1.9,4.1-4.1,4.1C44.5,13.3,42.7,11.5,42.7,9.2z"/>
</g>
</svg>
