<?xml version="1.0" encoding="utf-8"?>
<!-- Generator: Adobe Illustrator 21.0.0, SVG Export Plug-In . SVG Version: 6.00 Build 0)  -->
<svg version="1.1" id="Capa_1" xmlns="http://www.w3.org/2000/svg" xmlns:xlink="http://www.w3.org/1999/xlink" x="0px" y="0px"
	 viewBox="0 0 100 100" style="enable-background:new 0 0 100 100;" xml:space="preserve">
<path d="M99.4,38.2c-0.9-2.7-3.1-4.4-5.7-4.8l-25.9-3.8L56.3,6C55,3.6,52.7,2.1,50,2.1c-2.6,0-5.1,1.5-6.3,3.9L32.1,29.6L6.2,33.4
	c-2.7,0.4-4.8,2.2-5.7,4.8c-0.9,2.6-0.2,5.5,1.9,7.4L21,63.8l-4.5,25.7c-0.4,2.1,0.2,4.2,1.7,5.9c1.4,1.6,3.4,2.4,5.5,2.4
	c1.1,0,2.1-0.2,3.1-0.7L50,84.7l23.3,12.2c1,0.5,2.1,0.8,3.2,0.8c2,0,3.9-0.8,5.3-2.4c1.4-1.7,2-3.7,1.6-5.8L79,63.6l18.6-18.2
	C99.6,43.6,100.3,40.9,99.4,38.2z M71.5,59.3c-0.9,0.9-1.4,2.3-1.2,3.6l4.4,25.4L52,76.4c-0.6-0.3-1.3-0.5-1.9-0.5
	c-0.7,0-1.3,0.2-1.9,0.5L25.3,88.2L29.7,63c0.3-1.4-0.2-2.8-1.2-3.7L10,41.4l25.4-3.7c1.4-0.2,2.7-1.1,3.2-2.4L50,12.2l11.4,23.1
	c0.6,1.2,1.9,2.2,3.1,2.3L90,41.3L71.5,59.3z"/>
</svg>
