<?xml version="1.0" encoding="utf-8"?>
<!-- Generator: Adobe Illustrator 21.0.0, SVG Export Plug-In . SVG Version: 6.00 Build 0)  -->
<svg version="1.1" id="Capa_1" xmlns="http://www.w3.org/2000/svg" xmlns:xlink="http://www.w3.org/1999/xlink" x="0px" y="0px"
	 viewBox="0 0 100 100" style="enable-background:new 0 0 100 100;" xml:space="preserve">
<path d="M78,62.8c-4.8,0-9.4,1.8-13.1,5.4c-0.3,0.3-0.7,0.7-1.1,1.2L39.8,54.7c0.5-1.6,0.7-3.2,0.7-4.9c0-1.7-0.2-3.3-0.7-4.9
	l24.1-14.5c3.5,4.2,8.7,6.7,14.1,6.7c10.2,0,18.4-8.3,18.4-18.4S88.2,0.3,78,0.3S59.6,8.6,59.6,18.8c0,1.4,0.2,3,0.6,4.6L35.9,38
	c-3.4-4.1-8.6-6.5-14-6.5c-10.2,0-18.4,8.3-18.4,18.4c0,10.2,8.3,18.4,18.4,18.4c5.4,0,10.5-2.4,14-6.5l24.2,14.7
	c-0.4,1.4-0.5,2.9-0.5,4.7c0,4.8,1.8,9.4,5.4,13.1c3.5,3.5,8.1,5.4,13.1,5.4c4.8,0,9.4-1.8,13.1-5.4c3.5-3.5,5.4-8.1,5.4-13.1
	c0-4.8-1.8-9.4-5.4-13.1C87.5,64.7,82.9,62.8,78,62.8z M88.5,81.3c0,2.7-1,5.3-3,7.4c-1.9,1.9-4.5,3-7.4,3c-2.7,0-5.3-1-7.4-3
	c-1.9-1.9-3-4.5-3-7.4c0-2.7,1-5.3,3-7.4c1.9-1.9,4.5-3,7.4-3c2.7,0,5.3,1,7.4,3C87.5,76,88.5,78.6,88.5,81.3z M67.7,18.8
	c0-5.7,4.6-10.4,10.4-10.4c5.7,0,10.5,4.7,10.5,10.4c0,5.7-4.6,10.4-10.4,10.4C72.5,29.1,67.7,24.4,67.7,18.8z M32.4,50
	c0,5.7-4.6,10.4-10.4,10.4S11.7,55.7,11.7,50S16.3,39.7,22,39.7S32.4,44.3,32.4,50z"/>
</svg>
