<?xml version="1.0" encoding="utf-8"?>
<!-- Generator: Adobe Illustrator 21.0.0, SVG Export Plug-In . SVG Version: 6.00 Build 0)  -->
<svg version="1.1" id="Capa_1" xmlns="http://www.w3.org/2000/svg" xmlns:xlink="http://www.w3.org/1999/xlink" x="0px" y="0px"
	 viewBox="0 0 100 100" style="enable-background:new 0 0 100 100;" xml:space="preserve">
<g>
	<path d="M36.5,61.3C36,61.1,35.4,61,34.9,61H4.6c-2.3,0-4.2,1.9-4.2,4.2c0,2.3,1.9,4.2,4.2,4.2h26.1v26.1c0,2.3,1.9,4.2,4.2,4.2
		s4.2-1.9,4.2-4.2l0-30.4C39.1,63.5,38.1,62,36.5,61.3z"/>
	<path d="M4.6,39.1h30.3c2.3,0,4.2-1.9,4.2-4.2V4.6c0-2.3-1.9-4.2-4.2-4.2c-2.3,0-4.2,1.9-4.2,4.2v26.1H4.6c-1.1,0-2.2,0.4-3,1.2
		c-0.8,0.8-1.2,1.9-1.2,3c0,1.1,0.4,2.2,1.2,3C2.4,38.7,3.4,39.1,4.6,39.1z"/>
	<path d="M65.2,39.1h30.3c2.3,0,4.2-1.9,4.2-4.2c0-2.3-1.9-4.2-4.2-4.2H69.4V4.6c0-2.3-1.9-4.2-4.2-4.2c-2.3,0-4.2,1.9-4.2,4.2v30.3
		C61,37.2,62.9,39.1,65.2,39.1z"/>
	<path d="M95.5,61H65.2c-2.3,0-4.2,1.9-4.2,4.2v30.3c0,2.3,1.9,4.2,4.2,4.2c2.3,0,4.2-1.9,4.2-4.2V69.4h26.1c2.3,0,4.2-1.9,4.2-4.2
		C99.8,62.9,97.9,61,95.5,61z"/>
</g>
</svg>
