<?xml version="1.0" encoding="utf-8"?>
<!-- Generator: Adobe Illustrator 21.0.0, SVG Export Plug-In . SVG Version: 6.00 Build 0)  -->
<svg version="1.1" id="Capa_1" xmlns="http://www.w3.org/2000/svg" xmlns:xlink="http://www.w3.org/1999/xlink" x="0px" y="0px"
	 viewBox="0 0 100 100" style="enable-background:new 0 0 100 100;" xml:space="preserve">
<g>
	<path d="M16.1,28.7c6.4,0,11.9-4.1,13.7-10.2h64.3c2.2,0,4.1-1.8,4.1-4.1s-1.8-4.1-4.1-4.1H29.8C28,4.3,22.5,0.2,16.1,0.2
		C8.2,0.2,1.8,6.6,1.8,14.4C1.8,22.3,8.2,28.7,16.1,28.7z M10.1,14.4c0-3.3,2.7-6,6-6c3.3,0,6,2.8,6,6c0,3.3-2.8,6-6,6
		C12.8,20.5,10.1,17.7,10.1,14.4z"/>
	<path d="M83.9,71.3c-6.4,0-11.9,4.1-13.7,10.2H5.9c-2.2,0-4.1,1.8-4.1,4.1c0,2.2,1.8,4.1,4.1,4.1h64.3c1.8,6.1,7.3,10.2,13.7,10.2
		c7.9,0,14.3-6.4,14.3-14.3S91.8,71.3,83.9,71.3z M89.9,85.5c0,3.3-2.7,6-6,6c-3.3,0-6-2.7-6-6c0-3.3,2.7-6,6-6
		C87.2,79.5,89.9,82.2,89.9,85.5z"/>
	<path d="M5.9,54.1h30.5c1.9,6,7.6,10.2,13.9,10.2c6.4,0,12-4.2,13.9-10.2H94c2.2,0,4.1-1.8,4.1-4c0.1-1.1-0.3-2.1-1-2.9
		c-0.8-0.8-1.8-1.3-2.9-1.3H64.5C62.8,39.6,56.9,35,50.3,35c-6.7,0-12.4,4.5-14.1,10.9H5.9c-2.2,0-4.1,1.8-4.1,4.1
		C1.8,52.2,3.7,54.1,5.9,54.1z M44,49.6c0-3.6,2.8-6.4,6.4-6.4c3.5,0,6.4,2.9,6.4,6.4c0,3.6-2.8,6.4-6.4,6.4
		C46.8,56,44,53.2,44,49.6z"/>
</g>
</svg>
