<?xml version="1.0" encoding="utf-8"?>
<!-- Generator: Adobe Illustrator 21.0.0, SVG Export Plug-In . SVG Version: 6.00 Build 0)  -->
<svg version="1.1" id="Capa_1" xmlns="http://www.w3.org/2000/svg" xmlns:xlink="http://www.w3.org/1999/xlink" x="0px" y="0px"
	 viewBox="0 0 100 100" style="enable-background:new 0 0 100 100;" xml:space="preserve">
<path d="M56.4,50L98.6,7.9c0.9-0.9,1.3-2,1.3-3.3c0-1.2-0.5-2.3-1.3-3.2l-0.1-0.1c-0.5-0.5-1.7-1.2-3.1-1.2c-1.3,0-2.5,0.5-3.2,1.3
	L50,43.6L7.9,1.4c-1.7-1.7-4.6-1.8-6.3,0c-0.9,0.8-1.4,2-1.4,3.2c0,1.3,0.5,2.4,1.3,3.3L43.6,50L1.4,92.1c-0.9,0.9-1.3,2-1.3,3.3
	c0,1.2,0.4,2.3,1.3,3.2c0.8,0.8,2,1.3,3.2,1.3s2.3-0.5,3.2-1.3L50,56.4l42.1,42.1c0.8,0.8,2,1.3,3.2,1.3s2.3-0.5,3.2-1.3
	c0.8-0.8,1.3-2,1.3-3.2s-0.5-2.3-1.3-3.2L56.4,50z"/>
</svg>
