<?xml version="1.0" encoding="utf-8"?>
<!-- Generator: Adobe Illustrator 21.0.0, SVG Export Plug-In . SVG Version: 6.00 Build 0)  -->
<svg version="1.1" id="Capa_1" xmlns="http://www.w3.org/2000/svg" xmlns:xlink="http://www.w3.org/1999/xlink" x="0px" y="0px"
	 viewBox="0 0 100 100" style="enable-background:new 0 0 100 100;" xml:space="preserve">
<g>
	<path id="_x31_" d="M26.9000034,95.2000046V4.7999969c0-2.5-2-4.5-4.5-4.5s-4.5,2-4.5,4.5v90.4000092c0,2.5,2,4.5,4.5,4.5
		S26.9000034,97.7000046,26.9000034,95.2000046z"/>
	<path id="_x32_" d="M50.0000038,87.5h-0.0000076C47.5147171,87.5,45.5,85.4852829,45.5,83.0000076V16.9999962
		C45.5,14.5147161,47.5147171,12.5,49.9999962,12.5h0.0000076C52.4852829,12.5,54.5,14.5147161,54.5,16.9999962v66.0000153
		C54.5,85.4852829,52.4852829,87.5,50.0000038,87.5z"/>
	<path id="_x33_" d="M77.6666718,75h-0.0000076c-2.4852829,0-4.5-2.0147171-4.5-4.4999924V29.4999962
		c0-2.4852791,2.0147171-4.4999962,4.5-4.4999962h0.0000076c2.4852753,0,4.4999924,2.0147171,4.4999924,4.4999962v41.0000114
		C82.1666641,72.9852829,80.151947,75,77.6666718,75z"/>
</g>
</svg>
