<?xml version="1.0" encoding="utf-8"?>
<!-- Generator: Adobe Illustrator 21.0.0, SVG Export Plug-In . SVG Version: 6.00 Build 0)  -->
<svg version="1.1" id="Capa_1" xmlns="http://www.w3.org/2000/svg" xmlns:xlink="http://www.w3.org/1999/xlink" x="0px" y="0px"
	 viewBox="0 0 100 100" style="enable-background:new 0 0 100 100;" xml:space="preserve">
<g>
	<path d="M4.8,26.9h90.4c2.5,0,4.5-2,4.5-4.5s-2-4.5-4.5-4.5H4.8c-2.5,0-4.5,2-4.5,4.5S2.3,26.9,4.8,26.9z"/>
	<path d="M95.2,45.5H4.8c-2.5,0-4.5,2-4.5,4.5c0,2.5,2,4.5,4.5,4.5h90.4c2.5,0,4.5-2,4.5-4.5C99.7,47.5,97.7,45.5,95.2,45.5z"/>
	<path d="M95.2,73.1H4.8c-2.5,0-4.5,2-4.5,4.5c0,2.5,2,4.5,4.5,4.5h90.4c2.5,0,4.5-2,4.5-4.5C99.7,75.1,97.7,73.1,95.2,73.1z"/>
</g>
</svg>
