<?xml version="1.0" encoding="utf-8"?>
<!-- Generator: Adobe Illustrator 21.0.0, SVG Export Plug-In . SVG Version: 6.00 Build 0)  -->
<svg version="1.1" id="Capa_1" xmlns="http://www.w3.org/2000/svg" xmlns:xlink="http://www.w3.org/1999/xlink" x="0px" y="0px"
	 viewBox="0 0 100 100" style="enable-background:new 0 0 100 100;" xml:space="preserve">
<g>
	<path d="M96.6,10.1L96.6,10.1c-0.1-1.9-1.7-3.4-3.6-3.4h-9.2v-3c0-1.7-1.5-3.6-3.6-3.6H69c-1.7,0-3.6,1.5-3.6,3.6v3H34.1v-3
		c0-1.7-1.5-3.6-3.6-3.6h-11c-1.7,0-3.6,1.5-3.6,3.6v3H7c-1.7,0-3.5,1.4-3.5,3.6v85.9c0,1.7,1.5,3.6,3.6,3.6H93
		c1.7,0,3.6-1.5,3.6-3.6L96.6,10.1z M23.3,13.2v-6h4.2v6H23.3z M72.5,13.2v-6h4.2v6H72.5z M69.5,20.2h11.1c1.7,0,3.6-1.5,3.6-3.6v-3
		h5.7v10.6H10.6V13.7h5.9l0,2.9c-0.1,0.9,0.3,1.8,0.9,2.5c0.7,0.7,1.6,1.1,2.6,1.1h11.2c1.7,0,3.6-1.5,3.6-3.6v-3h31.2v3
		C65.9,18.4,67.3,20.2,69.5,20.2z M10.6,92.8V31.2h79.1v61.6H10.6z"/>
	<path d="M17.9,86.9h64.3v-50H17.9V86.9z M75.2,72.5V80h-7.4v-7.4H75.2z M75.2,58.2v7.5h-7.4v-7.5H75.2z M75.2,43.8v7.5h-7.4v-7.5
		H75.2z M60.9,72.5V80h-7.3v-7.4H60.9z M60.9,58.2v7.5h-7.3v-7.5H60.9z M60.9,43.8v7.5h-7.3v-7.5H60.9z M46.5,72.5V80h-7.4v-7.4
		H46.5z M46.5,58.2v7.5h-7.4v-7.5H46.5z M46.5,43.8v7.5h-7.4v-7.5H46.5z M32.2,72.5V80h-7.4v-7.4H32.2z M32.3,58.2v7.5h-7.4v-7.5
		H32.3z M32.3,43.8v7.5h-7.4v-7.5H32.3z"/>
</g>
</svg>
