<?xml version="1.0" encoding="utf-8"?>
<!-- Generator: Adobe Illustrator 21.0.0, SVG Export Plug-In . SVG Version: 6.00 Build 0)  -->
<svg version="1.1" id="Capa_1" xmlns="http://www.w3.org/2000/svg" xmlns:xlink="http://www.w3.org/1999/xlink" x="0px" y="0px"
	 viewBox="0 0 100 100" style="enable-background:new 0 0 100 100;" xml:space="preserve">
<path d="M87.7,2H12.2C5.5,2,0,7.4,0,14.1v51.7c0,6.7,5.5,12.2,12.2,12.2h9.3l8.7,17.6c0.6,1.5,2.2,2.4,3.8,2.4
	c1.5,0,2.9-0.8,3.7-2.2l8.8-17.7h41.2c6.7,0,12.2-5.5,12.2-12.2V14.1C99.9,7.4,94.4,2,87.7,2z M91.7,14.1v51.7
	c0,2.1-1.7,3.8-3.8,3.8H44c-1.7,0-3.1,0.9-3.7,2.3L34,84.3L27.9,72c-0.6-1.5-2.2-2.4-3.8-2.4H12.2c-2,0-3.7-1.7-3.7-3.7V14.1
	c0-2.1,1.7-3.8,3.8-3.8h75.6C90,10.3,91.7,12,91.7,14.1z"/>
</svg>
