<?xml version="1.0" encoding="utf-8"?>
<!-- Generator: Adobe Illustrator 21.0.0, SVG Export Plug-In . SVG Version: 6.00 Build 0)  -->
<svg version="1.1" id="Capa_1" xmlns="http://www.w3.org/2000/svg" xmlns:xlink="http://www.w3.org/1999/xlink" x="0px" y="0px"
	 viewBox="0 0 100 100" style="enable-background:new 0 0 100 100;" xml:space="preserve">
<path d="M50,0.3L50,0.3C22.6,0.3,0.3,22.6,0.3,50c0,27.4,22.3,49.7,49.7,49.7c27.4,0,49.7-22.3,49.7-49.7C99.6,22.7,77.3,0.4,50,0.3
	z M53.8,68.7V54h17.3c-0.3,5.8-1.2,11.4-2.7,16.5C63.8,69.6,58.9,69,53.8,68.7z M78.5,80.9c-2.8,2.6-6,4.8-9.3,6.5
	c1.8-2.5,3.2-5.2,4.4-8C75.4,79.8,77,80.3,78.5,80.9z M53.8,91.3V76.4c4.1,0.1,8.1,0.6,12,1.3C62.6,84.7,58.4,89.5,53.8,91.3z
	 M91.7,54c-0.6,7.5-3.3,14.7-7.8,20.8c-2.8-1.2-5.4-2.1-7.9-2.9c1.6-5.8,2.6-11.8,2.9-17.9H91.7z M71.1,46.3H53.8V31.4
	c4.6-0.2,9.4-0.7,14.6-1.6C70,35.1,70.9,40.6,71.1,46.3z M73.5,20.6c-1.1-2.8-2.6-5.5-4.2-8.1c3.4,1.8,6.5,3.9,9.2,6.5
	C76.8,19.7,75.2,20.2,73.5,20.6z M53.8,23.6V8.7c4.6,1.7,8.9,6.6,12,13.6C61.7,23.1,57.7,23.5,53.8,23.6z M91.7,46.1H78.8
	C78.5,40,77.5,33.9,75.9,28c2.5-0.7,5.1-1.6,7.9-2.7C88.3,31.4,91,38.5,91.7,46.1z M24,28.1c-1.6,5.8-2.6,11.8-2.9,17.9H8.3
	c0.6-7.5,3.3-14.7,7.8-20.8C18.8,26.4,21.5,27.3,24,28.1z M28.9,53.7h17.3v14.8c-4.6,0.2-9.4,0.7-14.6,1.6
	C30,64.8,29.1,59.3,28.9,53.7z M26.4,79.2c1.1,2.8,2.6,5.6,4.4,8.2c-3.4-1.7-6.6-4-9.4-6.6C23,80.2,24.6,79.6,26.4,79.2z M21.3,53.9
	c0.1,6,1.1,12,2.8,18.1c-2.7,0.7-5.3,1.6-7.8,2.6c-4.4-6.1-7.1-13.2-7.8-20.8L21.3,53.9z M21.5,19.1c2.8-2.5,5.9-4.7,9.1-6.4
	c-1.7,2.5-3.1,5.1-4.3,8C24.7,20.2,23.1,19.7,21.5,19.1z M46.1,31.3V46H28.9c0.3-5.8,1.2-11.4,2.7-16.5C36.2,30.4,41,31,46.1,31.3z
	 M34.1,22.3c3.2-7,7.4-11.9,12-13.6v14.8C42,23.5,38,23,34.1,22.3z M46.1,76.4v15c-4.6-1.7-8.9-6.6-12-13.7
	C38.1,77,42.2,76.5,46.1,76.4z"/>
</svg>
