<?xml version="1.0" encoding="utf-8"?>
<!-- Generator: Adobe Illustrator 21.0.0, SVG Export Plug-In . SVG Version: 6.00 Build 0)  -->
<svg version="1.1" id="Capa_1" xmlns="http://www.w3.org/2000/svg" xmlns:xlink="http://www.w3.org/1999/xlink" x="0px" y="0px"
	 viewBox="0 0 100 100" style="enable-background:new 0 0 100 100;" xml:space="preserve">
<path d="M99.7,23.4c-0.1-3.4-2.9-6.1-6.2-6.1H6.5c-3.4,0-6.2,2.8-6.2,6.2v53.1c0,3.4,2.8,6.2,6.2,6.2h86.9c3.4,0,6.2-2.8,6.2-6.2
	L99.7,23.4L99.7,23.4z M87.4,24.8L50,48.2L12.6,24.8H87.4z M8,67.2V30.7l25.7,16L8,67.2z M40.3,51.1l7.5,4.8c1.3,0.8,2.8,0.8,4.1,0
	l7.5-4.8l30.5,24.1H9.9L40.3,51.1z M92,31v36.2L66.3,46.9L92,31z"/>
</svg>
