<?xml version="1.0" encoding="utf-8"?>
<!-- Generator: Adobe Illustrator 21.0.0, SVG Export Plug-In . SVG Version: 6.00 Build 0)  -->
<svg version="1.1"
	 id="Layer_1" xmlns:cc="http://creativecommons.org/ns#" xmlns:dc="http://purl.org/dc/elements/1.1/" xmlns:inkscape="http://www.inkscape.org/namespaces/inkscape" xmlns:rdf="http://www.w3.org/1999/02/22-rdf-syntax-ns#" xmlns:sodipodi="http://sodipodi.sourceforge.net/DTD/sodipodi-0.dtd" xmlns:svg="http://www.w3.org/2000/svg"
	 xmlns="http://www.w3.org/2000/svg" xmlns:xlink="http://www.w3.org/1999/xlink" x="0px" y="0px" viewBox="0 0 100 100"
	 style="enable-background:new 0 0 100 100;" xml:space="preserve">
<path d="M72.5,50.3c5.6-5.5,8.7-13,8.7-20.8c0-16.2-13.1-29.3-29.3-29.3c-16.2,0-29.4,13.1-29.4,29.3c0,7.8,3.1,15.3,8.7,20.8
	C15.4,58.2,4.9,76.2,4.9,95.8c0,2.4,1.9,4.3,4.3,4.3h85.5c2.4,0,4.3-1.9,4.3-4.3C98.8,76.2,88.3,58.2,72.5,50.3z M62.4,47.5L62,47.6
	c-0.2,0.1-0.4,0.2-0.6,0.3L61.3,48c-3.1,1.6-6.2,2.4-9.6,2.4c-11.5,0-20.8-9.3-20.8-20.8S40.3,8.7,51.8,8.7
	c11.5,0,20.8,9.3,20.8,20.8C72.6,36.9,68.7,43.8,62.4,47.5z M39.4,56c3.9,1.9,8.1,2.8,12.4,2.8c4.3,0,8.5-0.9,12.4-2.8
	C78.1,60.6,88.5,75,90,91.5H13.6C15.2,75,25.6,60.6,39.4,56z"/>
</svg>
