<?xml version="1.0" encoding="utf-8"?>
<!-- Generator: Adobe Illustrator 21.0.0, SVG Export Plug-In . SVG Version: 6.00 Build 0)  -->
<svg version="1.1" id="Capa_1" xmlns="http://www.w3.org/2000/svg" xmlns:xlink="http://www.w3.org/1999/xlink" x="0px" y="0px"
	 viewBox="0 0 100 100" style="enable-background:new 0 0 100 100;" xml:space="preserve">
<path d="M85.5,35.8L85.5,35.8c-19.7-19.6-51.6-19.6-71.2,0l-14.1,14l14.4,14.4C24.1,73.7,36.8,79,50.3,79c13.5,0,26.2-5.2,35.7-14.8
	l13.8-14L85.5,35.8z M50,34.9c8.3,0,15.1,6.8,15.1,15.1S58.3,65.1,50,65.1S34.9,58.4,34.9,50S41.7,34.9,50,34.9z M27.2,50
	c0,8.5,4.7,15.9,11.6,19.8c-7-1.9-13.6-5.5-19-11l-9-9.1l8.9-8.9c5.8-5.8,12.8-9.5,20.2-11.3C32.4,33.3,27.2,41.1,27.2,50z M72.8,50
	c0-8.9-5.2-16.7-12.7-20.4c7.4,1.8,14.4,5.6,20.2,11.3l9,9.1l-8.9,8.9c-5.6,5.5-12.3,9.2-19.4,11.1C68,66.1,72.8,58.6,72.8,50z"/>
</svg>
