<?xml version="1.0" encoding="utf-8"?>
<!-- Generator: Adobe Illustrator 21.0.0, SVG Export Plug-In . SVG Version: 6.00 Build 0)  -->
<svg version="1.1" id="Capa_1" xmlns="http://www.w3.org/2000/svg" xmlns:xlink="http://www.w3.org/1999/xlink" x="0px" y="0px"
	 viewBox="0 0 100 100" style="enable-background:new 0 0 100 100;" xml:space="preserve">
<path d="M84.6,23.1L84.6,23.1c-0.1-2.9-2.4-5.1-5.3-5.1h-9.6C68.5,7.9,60.1,0.3,50,0.3C39.8,0.3,31.4,7.9,30.3,18h-9.5
	c-2.9,0-5.3,2.4-5.3,5.2l-2.6,66.4c-0.1,2.7,0.8,5.3,2.6,7.2c1.8,2,4.2,3,7,3h54.9c2.6,0,5-1,7-3c1.7-1.9,2.6-4.4,2.6-7.1L84.6,23.1
	z M38,17.9C39.2,12.3,44.1,8,50,8c5.9,0,10.8,4.3,12,10L38,17.9z M34.1,36.1c2.2,0,3.9-1.7,3.9-3.9v-6.4h24.3v6.4
	c0,2.2,1.7,3.9,3.9,3.9s3.9-1.7,3.9-3.9v-6.4h7l2.4,63.9c-0.1,0.6-0.3,1.2-0.7,1.6c-0.4,0.4-0.9,0.6-1.3,0.6H22.5
	c-0.5,0-1-0.2-1.4-0.6c-0.3-0.3-0.5-0.8-0.4-1.4l2.5-64.1h7.1v6.4C30.2,34.4,31.9,36.1,34.1,36.1z"/>
</svg>
