<?xml version="1.0" encoding="utf-8"?>
<!-- Generator: Adobe Illustrator 21.0.0, SVG Export Plug-In . SVG Version: 6.00 Build 0)  -->
<svg version="1.1" id="Capa_1" xmlns="http://www.w3.org/2000/svg" xmlns:xlink="http://www.w3.org/1999/xlink" x="0px" y="0px"
	 viewBox="0 0 100 100" style="enable-background:new 0 0 100 100;" xml:space="preserve">
<g>
	<path d="M0.2,7.8c0,2.1,1.5,3.5,3.5,3.5h9.1L22.3,59c1.4,7.1,7.9,12.5,15.2,12.5h46.2c2,0,3.5-1.5,3.5-3.5c0-2.1-1.5-3.5-3.5-3.5
		H37.9c-1.8,0-3.5-0.6-4.9-1.6l55.6-7.6c1.5,0,3-1.5,3.1-3l8.1-32.1v-0.2c0-0.4-0.1-1.6-0.8-2.3l-0.3-0.2c-0.5-0.4-1.2-1-2.5-1H21.1
		l-1.7-9c-0.1-1.8-2.1-3.1-3.5-3.1H3.8C1.8,4.3,0.2,5.8,0.2,7.8z M91.3,23.1l-6,25.5l-56.1,7.3l-6.6-32.8H91.3z"/>
	<path d="M24.3,84.1c0,6.5,5.1,11.6,11.6,11.6s11.6-5.1,11.6-11.6s-5.1-11.6-11.6-11.6S24.3,77.6,24.3,84.1z M35.9,79.7
		c2.4,0,4.4,2.1,4.4,4.4c0,2.3-2.1,4.4-4.4,4.4c-2.3,0-4.4-2.1-4.4-4.4C31.5,81.8,33.6,79.7,35.9,79.7z"/>
	<path d="M64.5,84.1c0,6.5,5.1,11.6,11.6,11.6c6.5,0,11.6-5.1,11.6-11.6s-5.1-11.6-11.6-11.6C69.6,72.5,64.5,77.6,64.5,84.1z
		 M76,79.7c2.4,0,4.4,2.1,4.4,4.4c0,2.3-2.1,4.4-4.4,4.4c-2.3,0-4.4-2.1-4.4-4.4C71.6,81.8,73.7,79.7,76,79.7z"/>
</g>
</svg>
