<?xml version="1.0" encoding="utf-8"?>
<!-- Generator: Adobe Illustrator 21.0.0, SVG Export Plug-In . SVG Version: 6.00 Build 0)  -->
<svg version="1.1" id="Capa_1" xmlns="http://www.w3.org/2000/svg" xmlns:xlink="http://www.w3.org/1999/xlink" x="0px" y="0px"
	 viewBox="0 0 100 100" style="enable-background:new 0 0 100 100;" xml:space="preserve">
<g>
	<path d="M96.2,4.3H84.1c-1.4,0-3.5,1.3-3.5,3.1l-1.7,9H3.8c-1.3,0-2,0.6-2.5,1L1,17.6c-0.7,0.7-0.8,1.8-0.8,2.3v0.2l8.1,32.1
		c0.1,1.5,1.5,3,3.1,3L67,62.8c-1.4,1-3.1,1.6-4.9,1.6H16.3c-2.1,0-3.5,1.5-3.5,3.5c0,2,1.5,3.5,3.5,3.5h46.2
		c7.3,0,13.8-5.4,15.2-12.5l9.4-47.7h9.1c2.1,0,3.5-1.5,3.5-3.5C99.8,5.8,98.2,4.3,96.2,4.3z M77.4,23.1l-6.6,32.8l-56.1-7.3
		l-6-25.5H77.4z"/>
	<path d="M64.1,72.5c-6.5,0-11.6,5.1-11.6,11.6s5.1,11.6,11.6,11.6s11.6-5.1,11.6-11.6S70.6,72.5,64.1,72.5z M68.5,84.1
		c0,2.3-2.1,4.4-4.4,4.4c-2.3,0-4.4-2.1-4.4-4.4c0-2.4,2.1-4.4,4.4-4.4C66.4,79.7,68.5,81.8,68.5,84.1z"/>
	<path d="M23.9,72.5c-6.5,0-11.6,5.1-11.6,11.6s5.1,11.6,11.6,11.6s11.6-5.1,11.6-11.6S30.4,72.5,23.9,72.5z M28.4,84.1
		c0,2.3-2.1,4.4-4.4,4.4s-4.4-2.1-4.4-4.4c0-2.4,2.1-4.4,4.4-4.4C26.3,79.7,28.4,81.8,28.4,84.1z"/>
</g>
</svg>
