<?xml version="1.0" encoding="utf-8"?>
<!-- Generator: Adobe Illustrator 21.0.0, SVG Export Plug-In . SVG Version: 6.00 Build 0)  -->
<svg version="1.1" id="Capa_1" xmlns="http://www.w3.org/2000/svg" xmlns:xlink="http://www.w3.org/1999/xlink" x="0px" y="0px"
	 viewBox="0 0 100 100" style="enable-background:new 0 0 100 100;" xml:space="preserve">
<path d="M84.6,22.9L84.6,22.9c-0.1-2.6-2.3-4.8-4.8-4.8H69.5C68.5,8.1,60.1,0.3,50,0.3c-10.2,0-18.6,7.8-19.5,17.9H20.3
	c-2.6,0-4.8,2.2-4.8,4.8l-2.6,67.1c-0.1,2.6,0.8,5.1,2.5,6.9c1.8,1.9,4.1,2.9,6.7,2.9h55.7c2.5,0,4.8-1,6.7-2.9
	c1.6-1.9,2.5-4.2,2.5-6.8L84.6,22.9z M50,7c6.4,0,11.9,4.8,12.8,11.2l-25.6-0.1C38.1,11.8,43.6,7,50,7z"/>
</svg>
