<?xml version="1.0" encoding="utf-8"?>
<!-- Generator: Adobe Illustrator 21.0.0, SVG Export Plug-In . SVG Version: 6.00 Build 0)  -->
<svg version="1.1"
	 id="Layer_1" xmlns:cc="http://creativecommons.org/ns#" xmlns:dc="http://purl.org/dc/elements/1.1/" xmlns:inkscape="http://www.inkscape.org/namespaces/inkscape" xmlns:rdf="http://www.w3.org/1999/02/22-rdf-syntax-ns#" xmlns:sodipodi="http://sodipodi.sourceforge.net/DTD/sodipodi-0.dtd" xmlns:svg="http://www.w3.org/2000/svg"
	 xmlns="http://www.w3.org/2000/svg" xmlns:xlink="http://www.w3.org/1999/xlink" x="0px" y="0px" viewBox="0 0 100 100"
	 style="enable-background:new 0 0 100 100;" xml:space="preserve">
<style type="text/css">
	.st0{display:none;enable-background:new    ;}
	.st1{display:inline;}
</style>
<g>
	<path d="M97.5,33.4c-1.4-1.4-3.2-2.1-5.2-2.1H75.1L53,1.7c-0.6-0.9-1.7-1.4-2.8-1.4c-1.1,0-2.1,0.5-2.6,1.4L25.4,31.3H7.7
		c-3.9,0-7.1,3.2-7.1,7.1v7.7c0,3.9,3.2,7.1,7.1,7.1h1l6.1,37.2c0.9,5.3,5.4,9.2,10.8,9.2h48.7c5.4,0,10-3.9,10.8-9.2l6.1-37.2h1
		c3.9,0,7.1-3.2,7.1-7.1v-7.7C99.6,36.6,98.9,34.7,97.5,33.4z M85.1,53.3l-6.1,36c-0.4,2.1-2.2,3.7-4.3,3.7H25.9
		c-2.1,0-4-1.6-4.3-3.7l-6.1-36.1H85.1z M33.7,31.3L50.2,9.2l16.6,22.1H33.7z M16,42.3c0,1.8,1,3.4,2.4,4.4H7.7
		c-0.2,0-0.6-0.3-0.6-0.6v-7.7c0-0.2,0.2-0.5,0.6-0.5h10.7C17,38.8,16,40.5,16,42.3z M26.4,40.9l2.3-3.1h43l2.3,3.1
		c-0.1,0.4-0.2,0.9-0.2,1.4c0,1.8,0.9,3.4,2.4,4.4H24.2c1.4-1,2.4-2.6,2.4-4.4C26.6,41.8,26.5,41.4,26.4,40.9z M84.5,42.3
		c0-1.8-1-3.4-2.4-4.4h10.7c0.2,0,0.6,0.3,0.6,0.6v7.6c0,0.2-0.3,0.6-0.6,0.6H82.1C83.5,45.7,84.5,44.1,84.5,42.3z"/>
	<path d="M65.7,92c1.8,0,3.3-1.5,3.3-3.3V57.7c0-1.8-1.5-3.3-3.3-3.3c-1.8,0-3.3,1.5-3.3,3.3v30.9C62.4,90.5,63.9,92,65.7,92z"/>
	<path d="M34.9,92c1.8,0,3.3-1.5,3.3-3.3V57.7c0-1.8-1.5-3.3-3.3-3.3s-3.3,1.5-3.3,3.3v30.9C31.6,90.5,33.1,92,34.9,92z"/>
	<path d="M50.3,92c1.8,0,3.3-1.5,3.3-3.3V57.7c0-1.8-1.5-3.3-3.3-3.3S47,55.9,47,57.7v30.9C47,90.5,48.5,92,50.3,92z"/>
</g>
<text transform="matrix(1 0 0 1 -14 113)" class="st0" style="font-family:'HelveticaNeue-Bold'; font-size:5px;">Created by Kokota</text>
<text transform="matrix(1 0 0 1 -14 118)" class="st0" style="font-family:'HelveticaNeue-Bold'; font-size:5px;">from the Noun Project</text>
</svg>
