<?xml version="1.0" encoding="utf-8"?>
<!-- Generator: Adobe Illustrator 21.0.0, SVG Export Plug-In . SVG Version: 6.00 Build 0)  -->
<svg version="1.1" id="Capa_1" xmlns="http://www.w3.org/2000/svg" xmlns:xlink="http://www.w3.org/1999/xlink" x="0px" y="0px"
	 viewBox="0 0 100 100" style="enable-background:new 0 0 100 100;" xml:space="preserve">
<path d="M89.5,0.2H10.6C4.9,0.2,0.3,4.8,0.3,10.5v78.9c0,5.7,4.6,10.3,10.3,10.3h78.9c5.7,0,10.3-4.6,10.3-10.3V10.6
	C99.9,4.9,95.2,0.2,89.5,0.2z M8.3,10.6c0-1.3,1-2.3,2.3-2.3h78.9c1.3,0,2.3,1,2.3,2.3l0,78.8c-0.1,1.3-1.1,2.3-2.4,2.3H10.6
	c-1.3,0-2.3-1-2.3-2.3V10.6z"/>
</svg>
