<?xml version="1.0" encoding="utf-8"?>
<!-- Generator: Adobe Illustrator 21.0.0, SVG Export Plug-In . SVG Version: 6.00 Build 0)  -->
<svg version="1.1" id="Capa_1" xmlns="http://www.w3.org/2000/svg" xmlns:xlink="http://www.w3.org/1999/xlink" x="0px" y="0px"
	 viewBox="0 0 100 100" style="enable-background:new 0 0 100 100;" xml:space="preserve">
<g>
	<path d="M15.3,35.1C7.1,35.1,0.4,41.8,0.4,50s6.7,14.9,15,14.9s15-6.7,15-14.9C30.4,41.9,23.5,35.1,15.3,35.1z M15.3,42.8
		c4,0,7.2,3.2,7.2,7.2s-3.2,7.2-7.2,7.2S8.1,54,8.1,50S11.4,42.8,15.3,42.8z"/>
	<path d="M84.7,35.1c-8.2,0-14.9,6.7-14.9,14.9c0,8.1,6.8,14.9,14.9,14.9c8.1,0,15-6.8,15-14.9C99.7,41.8,93,35.1,84.7,35.1z
		 M91.9,50c0,4-3.2,7.2-7.2,7.2S77.5,54,77.5,50s3.2-7.2,7.2-7.2S91.9,46,91.9,50z"/>
	<path d="M50,35.1c-8.2,0-14.9,6.7-14.9,14.9c0,8.1,6.8,14.9,14.9,14.9S64.9,58.1,64.9,50C64.9,41.8,58.2,35.1,50,35.1z M57.2,50
		c0,4-3.2,7.2-7.2,7.2c-4,0-7.2-3.2-7.2-7.2s3.2-7.2,7.2-7.2C54,42.8,57.2,46,57.2,50z"/>
</g>
</svg>
