<?xml version="1.0" encoding="utf-8"?>
<!-- Generator: Adobe Illustrator 21.0.0, SVG Export Plug-In . SVG Version: 6.00 Build 0)  -->
<svg version="1.1" id="Capa_1" xmlns="http://www.w3.org/2000/svg" xmlns:xlink="http://www.w3.org/1999/xlink" x="0px" y="0px"
	 viewBox="0 0 100 100" style="enable-background:new 0 0 100 100;" xml:space="preserve">
<g>
	<path d="M36.3,23.3l9.8-9.9v51.9c0,2.2,1.7,3.9,3.9,3.9c2.2,0,3.9-1.7,3.9-3.9v-52l9.6,9.6c1.4,1.4,3.9,1.4,5.3,0
		c1.4-1.4,1.4-3.9,0-5.3l-16.1-16c-0.2-0.2-0.6-0.6-1.1-0.8c-1-0.4-2.2-0.4-3.1,0C48,1,47.6,1.3,47.2,1.6l-16,15.9
		c-0.7,0.7-1.1,1.7-1.1,2.7c0,1.1,0.4,2.1,1.2,2.7C32.7,24.4,34.5,24.5,36.3,23.3z"/>
	<path d="M61.3,26.1c-2.2,0-3.9,1.7-3.9,3.9s1.7,3.9,3.9,3.9H80v58.4H20.1V33.8h18.6c2.2,0,3.9-1.7,3.9-3.9S40.9,26,38.7,26H12.5
		v73.4h75.1V26.1H61.3z"/>
</g>
</svg>
