<?xml version="1.0" encoding="utf-8"?>
<!-- Generator: Adobe Illustrator 21.0.0, SVG Export Plug-In . SVG Version: 6.00 Build 0)  -->
<svg version="1.1" id="Capa_1" xmlns="http://www.w3.org/2000/svg" xmlns:xlink="http://www.w3.org/1999/xlink" x="0px" y="0px"
	 viewBox="0 0 100 100" style="enable-background:new 0 0 100 100;" xml:space="preserve">
<g>
	<path d="M91.6,67L91.6,67c-15.1-12.1-21.3-5.7-26.7,0L64,67.9c-0.5,0.1-2.3-0.3-5.3-2.2c-3.5-2.3-7.9-6.1-13-11.2
		C32.2,41,32.2,36.7,32.3,36.1l0.9-0.9c5.9-5.8,12-11.8-0.2-26.7c-4-5-8.1-7.5-12.4-7.7C14.2,0.4,9.2,5.7,5.8,9.3
		c-0.4,0.5-1,1.1-1.5,1.6C-0.3,15.4-0.5,24.8,3.7,36c4.4,11.7,13.1,24.4,24.5,35.8c11.3,11.3,24,20,35.7,24.5
		c5.4,2.1,10.3,3.1,14.7,3.1c4.5,0,8.1-1.2,10.4-3.4c0.6-0.5,1.3-1.1,1.9-1.8c3.7-3.5,8.7-8.2,8.4-14.6C99.3,75.3,96.7,71.2,91.6,67
		z M27.8,29.7l-1,1c-5.3,5.4-1.1,14.3,13.7,29c5.5,5.5,10.2,9.5,14.3,12.2c8.1,5.3,12.5,3.6,14.7,1.3l1.1-1.1c5-5,6.9-6.9,16.5,0.8
		c3.2,2.6,4.9,4.9,5,6.8c0.1,3-3.4,6.3-6.1,8.7c-0.6,0.5-1.2,1-1.6,1.5c-0.1,0.1-0.3,0.3-0.4,0.4c-1.9,1.9-8.5,2-17.3-1.3
		C56,85,44.3,77,33.6,66.3C23.1,56.2,15,44.5,10.7,33.4C7.5,24.5,7.7,18,9.5,16.3c0.2-0.2,0.3-0.4,0.5-0.6c0.1-0.1,0.2-0.3,0.4-0.4
		c0.3-0.3,0.6-0.6,1-1.1c2.7-2.9,5.8-6.1,8.6-6.1l0.2,0c2,0.1,4.3,1.7,6.9,4.9C34.8,22.8,32.8,24.8,27.8,29.7z"/>
	<path d="M75.5,38.9C75,40.9,76,43,77.7,43.7c0.7,0.3,1.2,0.3,1.5,0.3c1.5,0,2.8-0.9,3.5-2.4c2.8-6.9,1.2-14.9-4.2-20.3
		c-5.4-5.4-13.8-7-20.9-3.9c-1,0.4-1.8,1.2-2.1,2.2c-0.3,0.9-0.3,1.9,0,2.7c0.3,1,1.2,1.8,2.2,2.2c1,0.3,2.1,0.3,2.9-0.2
		c4.2-1.9,9.3-1,12.5,2.2c3.2,3.2,4.1,7.9,2.5,12.1L75.5,38.9z"/>
	<path d="M51.4,10.5l0.2,0.1c1,0.3,2.1,0.3,2.9-0.2c9.9-4.5,21.8-2.3,29.6,5.4c7.5,7.5,9.8,18.8,5.8,28.6c-0.4,0.9-0.4,2,0.1,2.9
		c0.4,0.9,1.1,1.6,2,2c0.7,0.3,1.2,0.3,1.5,0.3c1.6,0,3-1,3.4-2.3c5.1-12.7,2.2-27.2-7.4-36.8c-9.9-9.9-25.2-12.8-38-7
		c-1,0.4-1.8,1.2-2.1,2.1c-0.3,0.9-0.3,1.9,0,2.7C49.8,9.8,51,10.4,51.4,10.5z"/>
</g>
</svg>
