<?xml version="1.0" encoding="utf-8"?>
<!-- Generator: Adobe Illustrator 21.0.0, SVG Export Plug-In . SVG Version: 6.00 Build 0)  -->
<svg version="1.1" id="Capa_1" xmlns="http://www.w3.org/2000/svg" xmlns:xlink="http://www.w3.org/1999/xlink" x="0px" y="0px"
	 viewBox="0 0 100 100" style="enable-background:new 0 0 100 100;" xml:space="preserve">
<path d="M98.8,26.1c-0.7-0.7-1.6-1.1-2.6-1.1H3.8c-2,0-3.7,1.7-3.7,3.7l0,42.5c0,1,0.4,1.9,1.1,2.6C1.9,74.6,2.8,75,3.8,75h92.5
	c2,0,3.7-1.7,3.7-3.7l0-42.5C99.9,27.8,99.5,26.8,98.8,26.1z M19.6,42.8c2,0,3.7-1.7,3.7-3.7v-6.7h7.8v13.4c0,2,1.7,3.7,3.7,3.7
	s3.7-1.7,3.7-3.7V32.4h7.8v6.7c0,2,1.7,3.7,3.7,3.7s3.7-1.7,3.7-3.7v-6.7h7.8v13.4c0,2,1.7,3.7,3.7,3.7s3.7-1.7,3.7-3.7V32.4h7.8
	v6.7c0,2,1.7,3.7,3.7,3.7c2,0,3.7-1.7,3.7-3.7v-6.7h8.4l0,35.1H7.5l0-35.1h8.4v6.7C15.9,41.2,17.5,42.8,19.6,42.8z"/>
</svg>
