<?xml version="1.0" encoding="utf-8"?>
<!-- Generator: Adobe Illustrator 21.0.0, SVG Export Plug-In . SVG Version: 6.00 Build 0)  -->
<svg version="1.1" id="Capa_1" xmlns="http://www.w3.org/2000/svg" xmlns:xlink="http://www.w3.org/1999/xlink" x="0px" y="0px"
	 viewBox="0 0 100 100" style="enable-background:new 0 0 100 100;" xml:space="preserve">
<g>
	<path d="M96.1,41.9c2.2,0,3.9-1.8,3.9-3.9V22c0-2.2-1.8-3.9-3.9-3.9H3.9C1.8,18,0,19.8,0,22v16c0,2.2,1.8,3.9,3.9,3.9
		c4.5,0,8.1,3.6,8.1,8.1s-3.6,8.1-8.1,8.1C1.8,58.1,0,59.8,0,62v16C0,80.2,1.8,82,3.9,82h92.1c2.2,0,3.9-1.8,3.9-3.9V62
		c0-2.2-1.8-3.9-3.9-3.9c-4.5,0-8.1-3.6-8.1-8.1S91.6,41.9,96.1,41.9z M80.1,50c0,7.3,5,13.7,12,15.5v8.6H7.9v-8.6
		c7-1.8,12-8.2,12-15.5c0-7.3-5-13.7-12-15.5v-8.6h84.2v8.6C85.1,36.3,80.1,42.7,80.1,50z"/>
	<path d="M28,42.1c-2.2,0-3.9,1.8-3.9,3.9v8c0,2.2,1.8,3.9,3.9,3.9c2.2,0,3.9-1.8,3.9-3.9v-8C31.9,43.8,30.1,42.1,28,42.1z"/>
	<path d="M28,26C25.8,26,24,27.8,24,30v8c0,2.2,1.8,3.9,3.9,3.9c2.2,0,3.9-1.8,3.9-3.9v-8C31.9,27.8,30.1,26,28,26z"/>
	<path d="M28,58.1c-2.2,0-3.9,1.8-3.9,3.9v8c0,2.2,1.8,3.9,3.9,3.9c2.2,0,3.9-1.8,3.9-3.9v-8C31.9,59.8,30.1,58.1,28,58.1z"/>
	<path d="M72,42.1c-2.2,0-3.9,1.8-3.9,3.9v8c0,2.2,1.8,3.9,3.9,3.9S76,56.2,76,54v-8C76,43.8,74.2,42.1,72,42.1z"/>
	<path d="M72,26c-2.2,0-3.9,1.8-3.9,3.9v8c0,2.2,1.8,3.9,3.9,3.9S76,40.2,76,38v-8C76,27.8,74.2,26,72,26z"/>
	<path d="M72,58.1c-2.2,0-3.9,1.8-3.9,3.9v8c0,2.2,1.8,3.9,3.9,3.9S76,72.2,76,70v-8C76,59.8,74.2,58.1,72,58.1z"/>
</g>
</svg>
