<?xml version="1.0" encoding="utf-8"?>
<!-- Generator: Adobe Illustrator 21.0.0, SVG Export Plug-In . SVG Version: 6.00 Build 0)  -->
<svg version="1.1" id="Layer_1" xmlns="http://www.w3.org/2000/svg" xmlns:xlink="http://www.w3.org/1999/xlink" x="0px" y="0px"
	 viewBox="0 0 100 100" style="enable-background:new 0 0 100 100;" xml:space="preserve">
<path d="M98.5,13.9c-1.8-1.8-4.6-1.8-6.4,0L28.6,77.4L7.8,56.7c-0.8-0.9-2-1.3-3.2-1.3s-2.3,0.5-3.2,1.3c-0.9,0.9-1.3,2-1.3,3.2
	s0.5,2.3,1.3,3.2l23,23c0.8,1.1,2.1,1.8,3.6,1.8c0.2,0,0.4,0,0.6-0.1c0.1,0,0.3,0.1,0.5,0.1c1.3,0,2.5-0.5,3.3-1.5l66-66.1
	c0.9-0.8,1.3-2,1.3-3.2C99.8,15.9,99.3,14.8,98.5,13.9z"/>
</svg>
