<?xml version="1.0" encoding="utf-8"?>
<!-- Generator: Adobe Illustrator 21.0.0, SVG Export Plug-In . SVG Version: 6.00 Build 0)  -->
<svg version="1.1" id="Layer_1" xmlns="http://www.w3.org/2000/svg" xmlns:xlink="http://www.w3.org/1999/xlink" x="0px" y="0px"
	 viewBox="0 0 100 100" style="enable-background:new 0 0 100 100;" xml:space="preserve">
<path d="M96.1,45.7H54.3V3.9c0-2.1-1.7-3.9-3.9-3.9h-1c-2.1,0-3.9,1.7-3.9,3.9v41.8H3.9c-2.1,0-3.9,1.7-3.9,3.9v1
	c0,2.1,1.7,3.9,3.9,3.9h41.8v41.8c0,2.1,1.7,3.9,3.9,3.9h1c2.1,0,3.9-1.7,3.9-3.9V54.3h41.8c2.1,0,3.9-1.7,3.9-3.9v-1
	C100,47.4,98.3,45.7,96.1,45.7z"/>
</svg>
