<?xml version="1.0" encoding="utf-8"?>
<!-- Generator: Adobe Illustrator 21.0.0, SVG Export Plug-In . SVG Version: 6.00 Build 0)  -->
<svg version="1.1" id="Capa_1" xmlns="http://www.w3.org/2000/svg" xmlns:xlink="http://www.w3.org/1999/xlink" x="0px" y="0px"
	 viewBox="0 0 100 100" style="enable-background:new 0 0 100 100;" xml:space="preserve">
<g>
	<path d="M94.6,27.4l-0.1-0.2c-0.1-0.2-0.2-0.4-0.4-0.6L80.5,3.1C78.7,0,75.3,0,73.6,0H26.4c-2.3,0-5.2,0.4-7,3.1L5.5,27.3
		c-0.1,0.1-0.2,0.2-0.2,0.4L5,28v0.3l-0.1,0.3c-0.2,0.7-0.5,1.6-0.5,2.5v62.6c0,6.4,6,6.4,9.2,6.4H86c3.5,0,9.2,0,9.2-6.4l0-63
		C95.5,29.5,95.2,28.4,94.6,27.4z M15.1,26.7L26.5,7.3L46,7.1v19.4L15.1,26.7z M54,26.7l0.1-19.4h20.1L85,26.7H54z M87.8,34.4V92
		H12.2V34.4H87.8z"/>
	<path d="M33.9,62.8l11.5,11.9c0.8,0.8,1.8,1.2,2.9,1.2c1.1,0,2.1-0.4,2.9-1.2L72,54.5c0.8-0.8,1.2-1.8,1.2-3c0-1-0.4-2-1.1-2.6
		c-0.6-0.8-1.6-1.3-2.6-1.4c-1.1-0.1-2.2,0.2-3.2,1.1L48.4,65.9l-8.8-9c-0.8-0.8-1.8-1.2-3-1.2c-1.3,0-2.5,0.6-3.1,1.5
		c-0.8,0.9-1.1,2.1-0.9,3.3C32.7,60.9,32.9,62.1,33.9,62.8z"/>
</g>
</svg>
