<?xml version="1.0" encoding="utf-8"?>
<!-- Generator: Adobe Illustrator 21.0.0, SVG Export Plug-In . SVG Version: 6.00 Build 0)  -->
<svg version="1.1" id="Capa_1" xmlns="http://www.w3.org/2000/svg" xmlns:xlink="http://www.w3.org/1999/xlink" x="0px" y="0px"
	 viewBox="0 0 100 100" style="enable-background:new 0 0 100 100;" xml:space="preserve">
<path d="M96.7,29.6H84.5v-3.2c0-2.7-2.2-4.9-4.9-4.9H31.5c-2.7,0-4.9,2.2-4.9,4.9v8.4H15.1c-1.2,0-2.3,0.6-2.8,1.6L6.2,47.1h-3
	c-1.8,0-3.2,1.4-3.2,3.2v18c0,1.8,1.5,3.2,3.2,3.2h3.5c1.4,4.2,5.3,7.1,9.7,7.1c0.7,0,1.3-0.1,1.9-0.2c3.8-0.7,6.7-3.3,7.9-6.8h3.5
	c0.2,0,0.3,0,0.5-0.1c0,0,0.1,0,0.1,0c0.4,0.1,0.8,0.1,1.1,0.1h19.8c1.6,4.9,6.6,7.9,11.7,6.8c3.8-0.7,6.7-3.3,7.9-6.8h8.8
	c2.7,0,4.9-2.2,4.9-4.9V53.4h8.8c1.8,0,3.2-1.4,3.2-3.2S95.2,47,93.4,47h-8.8v-2.3h0.2c1.8,0,3.2-1.4,3.2-3.2s-1.4-3.2-3.2-3.2h-0.2
	V36h12.2c1.8,0,3.2-1.4,3.2-3.3C99.9,30.9,98.5,29.6,96.7,29.6z M56.8,41.6c0,1.8,1.4,3.2,3.2,3.2h18v2.3h-9.5c-0.9,0-1.8,0.4-2.3,1
	c-0.6,0.6-0.9,1.4-0.9,2.2c0,1.8,1.4,3.2,3.2,3.2h9.4v11.6h-7.1c-0.7-2.2-2.1-4-4-5.3c-2.3-1.6-5.1-2.1-7.7-1.6
	c-3.8,0.7-6.7,3.3-7.9,6.8l-18.4-0.1l0.1-37l45,0.1v1.7h-6.1c-1.7,0-3,1.5-3,3.2c0,1.8,1.4,3.2,3.2,3.2h6.1v2.3H60
	C58.2,38.3,56.8,39.8,56.8,41.6z M61.1,64.4c2.2,0,3.9,1.8,3.9,3.9c0,2.2-1.8,3.9-3.9,3.9s-3.9-1.8-3.9-3.9
	C57.2,66.1,59,64.4,61.1,64.4z M16.5,64.4c2.2,0,3.9,1.8,3.9,3.9c0,2.2-1.8,3.9-3.9,3.9c-2.2,0-3.9-1.7-3.9-3.9
	C12.7,66.1,14.4,64.4,16.5,64.4z M14.6,58.1c-3.8,0.7-6.7,3.3-7.9,6.8H6.4V53.4h20.1V65h-0.2c-0.7-2.2-2.1-4-4-5.3
	C19.9,58.1,17.2,57.5,14.6,58.1z M26.5,41.4v5.7H13.7l3.3-5.7H26.5z"/>
</svg>
