<?xml version="1.0" encoding="utf-8"?>
<!-- Generator: Adobe Illustrator 21.0.0, SVG Export Plug-In . SVG Version: 6.00 Build 0)  -->
<svg version="1.1" id="Capa_1" xmlns="http://www.w3.org/2000/svg" xmlns:xlink="http://www.w3.org/1999/xlink" x="0px" y="0px"
	 viewBox="0 0 100 100" style="enable-background:new 0 0 100 100;" xml:space="preserve">
<path d="M98,23.8c-0.1-2-1.8-3.6-3.7-3.6H74.4c2.3-1.3,4-2.7,5.2-4.3l0.1-0.1c1.4-1.7,2.2-3.9,2.2-6.1c0-5.3-4.4-9.7-9.7-9.7
	c-0.7,0-1.3,0.1-1.7,0.2C63.6,1.5,54.9,7.8,50,15.1C45,7.7,36.4,1.3,29.7,0.3l-0.2,0C29,0.1,28.5,0,27.9,0c-5.3,0-9.7,4.3-9.7,9.7
	c0,2.2,0.8,4.4,2.2,6.2c1.2,1.6,2.9,3,5.2,4.3H5.7c-2,0-3.6,1.6-3.6,3.6V40c0,2,1.6,3.6,3.6,3.6h0.4v52.8c0,2,1.6,3.6,3.6,3.6h80.6
	c2,0,3.6-1.6,3.6-3.6V43.5h0.4c2,0,3.6-1.6,3.6-3.6L98,23.8z M86.6,43.5v49.2h-33V43.5H86.6z M56,19c3.8-5.6,10.6-10.7,15.5-11.6
	c0.1,0,0.3,0,0.4-0.1c0.1,0,0.1,0,0.2,0c1.3,0,2.4,1.1,2.4,2.4c0,0.6-0.1,1.1-0.4,1.4c-0.1,0.1-0.2,0.3-0.3,0.5
	C71.2,14.7,63.3,17.4,56,19z M90.6,27.5v8.8h-37v-8.8H90.6z M46.4,43.5v49.2h-33V43.5H46.4z M26,11.2c-0.3-0.4-0.5-0.8-0.5-1.5
	c0-0.6,0.2-1.2,0.6-1.6c0.5-0.5,1.1-0.8,1.7-0.8c0.1,0,0.2,0,0.2,0l0.3,0.1c4.9,0.8,11.8,6,15.6,11.6c-7.3-1.6-15.2-4.3-17.8-7.5
	v-0.1L26,11.2z M46.4,27.5v8.8h-37v-8.8H46.4z"/>
</svg>
