<?xml version="1.0" encoding="utf-8"?>
<!-- Generator: Adobe Illustrator 21.0.0, SVG Export Plug-In . SVG Version: 6.00 Build 0)  -->
<svg version="1.1" id="Capa_1" xmlns="http://www.w3.org/2000/svg" xmlns:xlink="http://www.w3.org/1999/xlink" x="0px" y="0px"
	 viewBox="0 0 100 100" style="enable-background:new 0 0 100 100;" xml:space="preserve">
<style type="text/css">
	.st0{fill:#222222;}
</style>
<g>
	<path class="st0" d="M50,0C22.4299965,0,0,22.4299965,0,50s22.4299965,50,50,50s50-22.4300003,50-50S77.5699997,0,50,0z
		 M50,91.9825211C26.8516006,91.9825211,8.0189314,73.1493683,8.0189314,50C8.0189314,26.8516006,26.8516006,8.0189314,50,8.0189314
		c23.1493683,0,41.9825211,18.8326683,41.9825211,41.9810677C91.9825211,73.1493683,73.1493683,91.9825211,50,91.9825211z"/>
	<path class="st0" d="M50,9.5151997c-2.2103195,0-4.0087395,1.7984219-4.0087395,4.0087404v34.0530243h-21.365448
		c-2.2103195,0-4.0087414,1.7993889-4.0087414,4.0106735c0,2.2093506,1.7984219,4.0068054,4.0087414,4.0068054H50
		c2.2103195,0,4.0087395-1.7974548,4.0087395-4.0068054V13.5239401C54.0087395,11.3136215,52.2103195,9.5151997,50,9.5151997z"/>
</g>
</svg>
