<?xml version="1.0" encoding="utf-8"?>
<!-- Generator: Adobe Illustrator 21.0.0, SVG Export Plug-In . SVG Version: 6.00 Build 0)  -->
<svg version="1.1" id="Layer_1" xmlns="http://www.w3.org/2000/svg" xmlns:xlink="http://www.w3.org/1999/xlink" x="0px" y="0px"
	 viewBox="0 0 100 100" style="enable-background:new 0 0 100 100;" xml:space="preserve">
<style type="text/css">
	.st0{fill:#222222;}
</style>
<path class="st0" d="M95.3148041,66.0724258L53.6263008,44.0492401v-0.6362457
	c6.9695625-2.0891495,11.2605095-6.8025055,11.2605095-12.4508972c0-7.0674095-5.7495804-12.816988-12.8165131-12.816988
	c-6.6139717,0-12.2246552,4.927187-12.7606659,11.1235218c-0.0281601,0.1637135-0.0458221,0.3317242-0.0501175,0.5698986
	c0,2.0003719,1.6275978,3.6274929,3.6284485,3.6274929c1.727356,0,3.2246513-1.2285728,3.5721283-2.9941139l0.0625267-0.4844608
	c0.1217117-1.3116264,0.782299-2.2528648,1.3163986-2.8122635c1.0729752-1.1269093,2.6156158-1.7736549,4.2312813-1.7736549
	c3.0652313,0,5.5586586,2.494381,5.5586586,5.5605679c0,1.0753632-0.4543915,2.043808-1.389904,2.960228
	c-1.2524414,1.2247543-3.1721497,2.1836548-5.6130714,2.7903061c-3.1015053,0.9569893-3.1454201,0.9727402-3.1802597,0.9856262
	l-1.0715446,0.3808899l-0.0028648,5.9696121L4.6956964,66.0686111C1.7994282,67.5597,0,70.3757782,0,73.4200134
	c0,4.6508255,4.1343889,8.4348755,9.2166996,8.4348755h81.5694656c5.0803986,0,9.2138367-3.78405,9.2138367-8.4348755
	C100,70.3786469,98.2043915,67.5644684,95.3148041,66.0724258z M92.7440567,73.4200134
	c0,0.4734802-0.8219147,1.1751175-1.9578934,1.1751175H9.2166996c-1.1364555,0-1.9588466-0.7016373-1.9588466-1.1751175
	c0-0.3054733,0.2873354-0.6615448,0.7178617-0.8877869l42.0216599-22.1935806l41.9801331,22.1716309
	C92.4433594,72.7517853,92.7440567,73.1097641,92.7440567,73.4200134z"/>
</svg>
